<svg width="379" height="249" viewBox="0 0 379 249" fill="none" xmlns="http://www.w3.org/2000/svg">
<path d="M60.1392 197.423C48.1573 177.555 48.0221 153.406 59.7338 131.24C64.1932 122.815 74.9138 112.408 83.6525 108.083C97.1209 101.415 111.49 98.6215 125.274 100.018C143.607 101.865 161.084 92.7195 169.688 76.6355C185.589 47.0806 218.111 29.3296 252.57 31.4922C295.993 34.1953 330.813 67.9853 333.516 110.02C335.002 132.997 327.029 154.938 311.173 171.923C294.732 189.449 271.264 199.496 246.85 199.496C236.669 199.496 226.67 197.784 217.165 194.45C200.228 188.503 181.129 193.368 169.598 206.569C156.805 221.256 138.067 229.681 118.247 229.681C94.4182 229.726 72.1661 217.337 60.1392 197.423ZM217.435 193.684C226.85 197.018 236.715 198.685 246.85 198.685C271.039 198.685 294.282 188.728 310.543 171.382C326.263 154.623 334.101 132.862 332.66 110.155C330.002 68.5259 295.543 35.1415 252.57 32.4383C218.471 30.3208 186.264 47.8465 170.544 77.1311C161.76 93.4854 143.967 102.856 125.229 100.964C111.625 99.5676 97.3912 102.361 84.103 108.939C75.4994 113.174 64.959 123.401 60.5896 131.691C49.0131 153.586 49.1483 177.375 60.95 197.018C72.7967 216.706 94.7335 228.915 118.247 228.915C137.796 228.915 156.265 220.626 168.922 206.118C177.346 196.477 189.733 191.161 202.435 191.161C207.435 191.116 212.525 191.927 217.435 193.684Z" fill="#DADAE8"/>
<path d="M116.535 74.1577C116.13 71.4094 116.896 68.6161 118.787 66.0481C121.805 61.9933 127.301 59.0198 133.517 58.1638C144.012 56.677 153.427 61.4076 154.553 68.7513C154.958 71.4995 154.193 74.2928 152.301 76.8609C149.283 80.9156 143.787 83.8892 137.571 84.7452C136.265 84.9254 134.958 85.0155 133.697 85.0155C124.868 85.0155 117.481 80.5552 116.535 74.1577ZM133.652 59.0198C127.661 59.8758 122.391 62.7141 119.508 66.5887C117.751 68.9315 117.031 71.5446 117.391 74.0225L116.941 74.0676L117.391 74.0225C118.427 80.8706 127.436 85.2858 137.436 83.8441C143.427 82.9881 148.697 80.1497 151.58 76.2752C153.337 73.9324 154.057 71.3193 153.697 68.8414C152.796 62.8493 145.814 58.7495 137.391 58.7495C136.175 58.7495 134.913 58.8396 133.652 59.0198Z" fill="#DADAE8"/>
<path d="M130.454 221.752C130.454 221.752 154.598 217.382 164.057 221.797C173.472 226.212 174.598 231.213 174.598 231.213C176.219 229.681 181.85 224.815 189.553 225.131C191.535 225.221 197.165 225.401 199.553 229.005C199.823 229.411 200.003 229.816 201.76 235.088C204.553 234.186 208.832 233.15 213.967 233.421C225.814 234.051 237.705 241.215 236.985 244.549C236.895 244.864 236.714 245.27 236.129 245.63H129.643C129.643 245.63 105.815 245.63 113.562 236.755C121.355 227.924 130.454 221.752 130.454 221.752Z" fill="#648EE2"/>
<path d="M330.047 219.409C330.047 219.409 339.011 208.101 332.435 197.063C332.435 197.063 338.38 184.222 326.489 175.888C314.552 167.553 315.453 191.071 315.453 191.071C315.453 191.071 298.471 194.63 301.444 210.173C304.417 225.671 304.417 225.671 304.417 225.671C304.417 225.671 259.687 168.138 256.714 179.177C253.741 190.215 259.687 194.675 259.687 194.675C259.687 194.675 245.994 203.01 259.687 209.272C273.381 215.534 273.381 215.534 273.381 215.534C273.381 215.534 263.561 218.823 266.219 225.671C268.876 232.52 284.687 235.808 284.687 235.808C275.318 237.926 259.913 241.665 259.372 243.558C259.372 243.603 259.147 244.278 258.786 245.63H378.921C378.921 245.63 376.849 222.653 359.822 227.428C359.867 227.474 347.344 209.002 330.047 219.409Z" fill="#FFC35A"/>
<path d="M313.786 226.843L313.246 226.617C316.759 218.688 324.777 188.502 324.867 188.187L325.453 188.322C325.363 188.638 317.345 218.868 313.786 226.843Z" fill="#FFF9ED"/>
<path d="M330.101 202.615L319.687 207.244L319.925 207.779L330.339 203.15L330.101 202.615Z" fill="#FFF9ED"/>
<path d="M310.802 207.231L310.263 207.459L315.68 220.234L316.219 220.006L310.802 207.231Z" fill="#FFF9ED"/>
<path d="M304.011 236.709C298.11 227.879 267.12 195.351 266.804 194.99L267.255 194.585C267.57 194.9 298.651 227.519 304.552 236.349L304.011 236.709Z" fill="#FFF9ED"/>
<path d="M261.105 201.395L261.054 201.978L274.606 203.167L274.657 202.584L261.105 201.395Z" fill="#FFF9ED"/>
<path d="M285.953 204.021L285.375 204.114L287.459 217.103L288.037 217.011L285.953 204.021Z" fill="#FFF9ED"/>
<path d="M274.521 221.958L274.38 222.527L297.295 228.187L297.435 227.619L274.521 221.958Z" fill="#FFF9ED"/>
<path d="M75.4093 216.21C75.4093 216.21 65.5446 203.731 72.7968 191.566C72.7968 191.566 66.2202 177.464 79.3733 168.229C92.5263 159.038 91.5354 184.988 91.5354 184.988C91.5354 184.988 110.274 188.908 106.986 206.028C103.697 223.103 103.697 223.103 103.697 223.103C103.697 223.103 152.931 159.714 156.22 171.878C159.508 184.042 152.931 188.953 152.931 188.953C152.931 188.953 168.021 198.144 152.931 205.037C137.841 211.93 137.841 211.93 137.841 211.93C137.841 211.93 148.697 215.534 145.724 223.103C142.751 230.672 125.364 234.277 125.364 234.277C135.679 236.619 152.661 240.719 153.292 242.837C153.292 242.882 153.517 243.603 153.967 245.134H21.5359C21.5359 245.134 23.8331 219.86 42.5717 225.086C42.5717 225.086 56.3554 204.722 75.4093 216.21Z" fill="#4F4FC6"/>
<path d="M93.3372 224.365C89.4183 215.58 80.5895 182.285 80.4994 181.97L81.13 181.79C81.2201 182.105 90.0489 215.354 93.9227 224.095L93.3372 224.365Z" fill="#FFF9ED"/>
<path d="M75.3526 197.65L75.078 198.267L86.5272 203.34L86.8018 202.723L75.3526 197.65Z" fill="#FFF9ED"/>
<path d="M96.5929 202.744L90.6238 216.802L91.2457 217.066L97.2148 203.009L96.5929 202.744Z" fill="#FFF9ED"/>
<path d="M104.058 235.268L103.517 234.907C110.004 225.131 144.238 189.223 144.598 188.863L145.094 189.314C144.733 189.674 110.544 225.536 104.058 235.268Z" fill="#FFF9ED"/>
<path d="M151.393 196.325L136.45 197.637L136.509 198.31L151.452 196.998L151.393 196.325Z" fill="#FFF9ED"/>
<path d="M123.991 199.248L121.699 213.527L122.366 213.634L124.658 199.355L123.991 199.248Z" fill="#FFF9ED"/>
<path d="M136.564 218.984L111.337 225.239L111.5 225.895L136.727 219.64L136.564 218.984Z" fill="#FFF9ED"/>
<path d="M2.52697 188.593C-1.48201 181.159 -0.536073 170.436 4.05849 168.093C5.2747 167.463 6.71613 167.327 7.3918 167.372C18.1575 167.913 20.5449 177.87 20.5449 177.87C20.5449 177.87 32.3015 167.102 37.6168 178.951C42.9321 190.8 37.5267 202.649 37.5267 202.649C37.9321 202.018 42.842 194.494 48.4275 195.215C55.4996 196.116 57.8869 209.722 58.2473 211.57C58.6527 213.957 59.0131 215.94 58.5176 218.508C57.2563 225.311 51.2203 230.988 51.1753 231.033C49.1032 233.375 42.7519 239.863 33.5177 240.224C18.4278 240.809 5.54497 224.545 7.61703 218.193C7.8873 217.336 8.87828 215.309 10.9053 214.093C13.5179 212.516 17.4818 212.606 17.4818 212.606C17.4818 212.606 -2.06759 209.542 0.364823 202.063C2.75219 194.585 9.1035 195.621 9.1035 195.621C7.12154 194.314 4.41885 192.107 2.52697 188.593Z" fill="#4F4FC6"/>
<path d="M39.6889 228.194C27.3016 213.282 8.02243 177.149 7.93234 176.293L8.33774 176.248C8.65305 177.78 28.0223 213.507 40.0042 227.924L39.6889 228.194Z" fill="#FFF9ED"/>
<path d="M23.3589 180.478L19.7989 197.823L20.196 197.904L23.756 180.559L23.3589 180.478Z" fill="#FFF9ED"/>
<path d="M8.9543 205.382L8.90195 205.784L25.9221 207.992L25.9745 207.59L8.9543 205.382Z" fill="#FFF9ED"/>
<path d="M38.4062 207.677L33.3738 219.49L33.7468 219.649L38.7792 207.836L38.4062 207.677Z" fill="#FFF9ED"/>
<path d="M192.751 110.786C193.697 112.768 192.751 112.768 192.751 112.768L190.859 111.777L192.751 110.786Z" fill="#252122"/>
<path d="M202.751 99.1621C202.751 99.1621 200.949 102.181 200.679 105.289C200.408 108.398 200.408 108.398 198.607 111.417C196.805 114.435 195.904 115.922 195.183 115.066C194.463 114.21 197.12 110.516 196.399 109.659C195.679 108.803 193.291 109.434 191.445 112.408C189.643 115.426 189.147 121.689 187.706 119.977C187.21 119.436 187.165 118.039 187.3 116.417C186.985 116.643 186.58 116.778 186.4 116.688C186.039 116.598 185.904 115.652 186.219 112.993C185.634 112.633 184.868 112.002 184.508 111.011C183.201 107.677 187.526 103.262 189.282 101.46C190.679 100.063 193.066 97.9457 196.67 96.2336C196.715 96.3237 199.237 94.1612 202.751 99.1621Z" fill="#F7A0A0"/>
<path d="M253.696 245.54L253.606 247.117C253.606 247.117 281.219 248.018 283.876 247.658C286.489 247.252 289.282 244.279 289.372 242.702C289.462 241.125 287.345 241.711 287.345 241.711L253.696 245.54Z" fill="#383334"/>
<path d="M257.75 234.187C257.48 230.853 257.21 227.474 256.94 224.14C261.219 223.644 265.498 223.149 269.777 222.698C269.327 226.257 268.831 229.817 268.381 233.376C267.84 234.367 267.345 235.358 266.804 236.349C263.786 235.628 260.768 234.908 257.75 234.187Z" fill="#E55438"/>
<path d="M288.336 242.116C287.705 244.189 285.543 245.63 283.966 246.081C283.156 246.306 275.903 246.171 268.786 245.991C266.309 245.946 263.876 245.855 261.714 245.81C257.66 245.675 254.732 245.585 254.732 245.585C254.777 244.549 255.453 241.35 256.129 238.422C256.444 237.115 256.714 235.854 256.94 234.863C257.255 233.556 257.48 232.7 257.48 232.7C261.669 232.385 265.723 234.682 265.723 234.682C265.318 232.565 269.102 230.177 269.102 230.177C269.102 230.177 269.958 233.871 270.948 234.457C270.994 234.502 271.084 234.547 271.219 234.592C271.489 234.727 271.894 234.908 272.435 235.133C272.75 235.268 273.156 235.448 273.561 235.628C273.921 235.809 274.327 235.989 274.777 236.169C275.138 236.349 275.543 236.529 275.948 236.71C276.354 236.89 276.759 237.07 277.165 237.25C277.885 237.566 278.606 237.881 279.372 238.242C283.831 240.179 288.336 242.116 288.336 242.116Z" fill="#383334"/>
<path d="M268.831 228.15C265.768 228.015 263.741 227.969 262.435 227.924C262.3 227.924 262.21 227.924 262.03 227.924C260.003 227.879 258.381 227.744 257.345 227.609C256.489 227.339 255.003 226.753 253.696 225.537C249.417 221.572 250.183 214.318 250.588 210.939C253.786 181.565 255.318 166.562 252.931 151.694C252.886 151.289 252.795 151.019 252.795 150.838C252.75 150.433 252.66 150.027 252.615 149.667C251.669 144.261 250.543 139.305 249.372 134.844C247.435 127.546 242.3 108.668 242.03 96.5491C241.985 94.5668 242.075 92.7647 242.3 91.1878C242.705 88.6198 243.561 86.7726 245.093 86.0067C245.723 85.6913 246.174 85.7364 248.967 85.3759C252.66 84.9254 255.903 84.4298 258.741 83.8892C261.084 83.4387 263.066 83.0332 264.732 82.6277C265.408 85.6012 266.129 88.6648 266.759 91.8186C266.849 92.224 266.939 92.6746 267.03 93.08C271.264 113.669 275.633 162.327 275.633 162.327C276.939 176.924 275.993 191.612 276.714 206.254C276.939 210.309 277.48 220.716 270.994 226.618C270.093 227.339 269.372 227.834 268.831 228.15Z" fill="#4F4FC6"/>
<path d="M265.093 160.029C264.913 174.581 262.976 217.111 262.48 227.969C262.345 227.969 262.21 227.969 262.075 227.969C262.57 217.157 264.507 174.581 264.687 160.029C264.913 143.404 254.282 94.2964 254.192 93.8008L254.597 93.7107C254.687 94.2063 265.273 143.404 265.093 160.029Z" fill="#4B1FB5"/>
<path d="M269.417 234.547L270.003 234.096C270.768 233.511 277.345 228.33 279.102 229.141C279.327 229.231 279.597 229.501 279.597 230.042C279.597 233.331 270.543 234.412 270.138 234.457L269.417 234.547ZM278.606 229.501C277.165 229.501 273.516 231.934 270.858 233.961C273.741 233.556 279.147 232.294 279.147 230.087C279.147 229.726 279.011 229.636 278.921 229.591C278.831 229.501 278.741 229.501 278.606 229.501Z" fill="white"/>
<path d="M277.975 238.151C274.957 238.151 270.003 234.682 269.732 234.502L269.147 234.097L269.867 234.142C270.813 234.187 279.192 234.727 279.957 236.53C280.047 236.755 280.093 237.115 279.732 237.521C279.282 237.971 278.696 238.151 277.975 238.151ZM270.588 234.592C273.021 236.169 277.885 238.872 279.372 237.205C279.597 236.935 279.597 236.755 279.552 236.665C279.102 235.583 274.237 234.863 270.588 234.592Z" fill="white"/>
<path d="M263.336 92.8546C263.336 92.8546 258.336 142.819 252.886 151.694C252.84 151.424 252.795 151.108 252.75 150.838C252.705 150.433 252.615 150.027 252.57 149.667L255.408 89.2053L263.336 92.8546Z" fill="#4B1FB5"/>
<path d="M200.589 241.08L200.273 242.611C200.273 242.611 227.435 247.838 230.093 247.883C232.751 247.928 235.949 245.405 236.264 243.873C236.579 242.341 234.417 242.566 234.417 242.566L200.589 241.08Z" fill="#383334"/>
<path d="M206.85 230.673C207.661 227.429 208.516 224.14 209.327 220.896C213.516 221.842 217.751 222.743 221.94 223.689C220.363 226.888 218.742 230.132 217.165 233.331C216.354 234.097 215.543 234.862 214.688 235.628C212.075 233.961 209.462 232.34 206.85 230.673Z" fill="#E55438"/>
<path d="M235.138 243.152C231.129 249.054 225.859 245.18 215.228 243.918C212.03 243.333 202.526 241.531 201.399 241.305C201.895 239.278 205.048 231.619 206.174 229.006C210.363 229.366 214.012 232.295 214.012 232.295C214.147 231.844 214.643 230.447 215.994 229.501C218.201 228.015 220.724 228.961 220.949 229.051C220.769 229.231 219.733 230.402 219.913 231.979C220.003 232.835 220.363 233.466 220.588 233.781C223.652 235.809 234.237 242.567 235.138 243.152Z" fill="#383334"/>
<path d="M260.228 83.9341C260.183 86.4121 260.138 89.0251 260.048 91.6833C260.003 92.8997 259.958 94.0711 259.913 95.3326C259.192 111.462 257.165 130.294 252.75 150.883C251.309 157.506 250.093 162.327 248.877 167.012C242.48 191.701 233.111 227.924 222.39 227.699C221.94 227.699 221.219 227.609 220.318 227.158C218.066 226.528 215.814 225.897 213.562 225.266C213.426 225.221 213.291 225.176 213.156 225.176C211.174 224.635 209.237 224.095 207.255 223.509C206.805 222.923 206.219 222.067 205.679 220.896C201.94 212.741 207.3 203.145 210.904 196.387C215.138 188.413 220.679 177.284 227.39 161.966C227.751 140.836 228.201 116.012 228.111 111.236C228.111 111.101 228.111 110.966 228.111 110.831C228.021 105.425 227.841 102.136 227.615 100.379C227.525 99.7028 227.075 96.8644 227.345 93.0799C227.345 92.7646 227.39 92.4942 227.435 92.1789C227.48 91.7283 227.525 91.2778 227.57 90.8273C227.976 87.9889 228.651 85.556 229.327 83.7539C234.237 83.799 239.102 83.844 244.012 83.844L260.228 83.9341Z" fill="#4F4FC6"/>
<path d="M242.075 93.7556C242.075 94.2061 241.309 137.277 239.642 151.018C238.111 163.678 217.03 216.616 213.562 225.221C213.426 225.176 213.291 225.131 213.156 225.131C216.534 216.661 237.66 163.633 239.192 150.973C240.859 137.277 241.624 94.2061 241.624 93.7556H242.075Z" fill="#4B1FB5"/>
<path d="M217.48 233.917L218.066 233.466C218.832 232.88 225.408 227.699 227.165 228.51C227.39 228.6 227.66 228.871 227.66 229.411C227.66 232.7 218.607 233.781 218.201 233.827L217.48 233.917ZM226.67 228.871C225.228 228.871 221.579 231.304 218.922 233.331C221.805 232.925 227.21 231.664 227.21 229.456C227.21 229.096 227.075 229.006 226.985 228.961C226.895 228.871 226.805 228.871 226.67 228.871Z" fill="white"/>
<path d="M226.039 237.521C223.021 237.521 218.066 234.052 217.796 233.871L217.21 233.466L217.931 233.511C218.877 233.556 227.255 234.097 228.021 235.899C228.111 236.124 228.156 236.484 227.796 236.89C227.345 237.34 226.76 237.521 226.039 237.521ZM218.697 233.961C221.129 235.538 225.994 238.241 227.48 236.575C227.706 236.304 227.706 236.124 227.66 236.034C227.165 234.953 222.3 234.232 218.697 233.961Z" fill="white"/>
<path d="M232.21 109.93C231.309 110.741 229.688 111.056 228.156 111.191C228.156 111.056 228.156 110.921 228.156 110.786C229.597 110.651 231.129 110.335 231.94 109.615C233.426 108.308 233.606 96.5491 233.561 92.0889H233.967C233.967 92.7647 234.147 108.218 232.21 109.93Z" fill="#4B1FB5"/>
<path d="M293.921 54.1988C293.921 54.1988 300.633 46.5397 301.444 45.8189C302.255 45.098 302.885 45.1881 302.75 46.5397C302.57 47.8913 301.444 48.7924 301.264 49.6484C301.083 50.4594 301.219 51 301.219 51C301.849 50.4594 305.453 47.3507 309.282 44.197C309.867 43.7464 311.038 42.7553 311.849 43.1157C311.894 43.1157 312.164 43.2508 312.255 43.5212C312.48 44.197 311.173 45.2332 310.588 45.6837C309.417 46.6298 307.75 48.0265 305.633 50.189C305.723 50.2791 305.813 50.3242 305.903 50.4143C308.471 48.2968 310.182 46.6749 311.309 45.4584C311.939 44.7826 313.245 43.431 314.282 43.7464C314.372 43.7915 314.597 43.8365 314.687 44.0167C315.002 44.6475 313.651 45.909 312.255 47.2155C310.993 48.3869 309.417 49.8737 307.57 51.5406C307.615 51.5857 307.66 51.6758 307.705 51.7208C309.417 50.4143 310.903 49.3781 312.029 48.6122C313.291 47.7562 314.597 46.8551 315.002 47.2155C315.137 47.3056 315.137 47.4858 315.137 47.5759C315.137 47.5759 315.318 49.0627 308.471 53.8834C309.687 53.2527 310.588 52.667 311.218 52.2164C312.66 51.1802 313.696 50.189 314.191 50.5044C314.372 50.5945 314.417 50.8198 314.417 50.8648C314.597 51.6758 313.155 53.8383 308.02 56.947C303.876 59.47 293.921 63.1644 293.921 63.1644L289.552 55.6405L293.921 54.1988Z" fill="#F7A0A0"/>
<path d="M296.399 61.8131C294.056 65.4624 289.642 71.1841 282.3 75.6895C280.633 76.6806 279.327 77.4916 278.156 78.1223C277.57 78.4377 277.03 78.663 276.489 78.8432C275.408 79.2036 274.417 79.3838 273.291 79.2937C272.075 79.2036 270.903 78.7981 269.777 78.2124C269.642 78.1674 269.552 78.0773 269.417 78.0322C267.976 77.1762 266.579 75.9598 265.363 74.428C265.273 74.3379 265.183 74.2027 265.093 74.1126C260.543 68.3458 257.525 58.7945 257.3 50.5498C257.165 45.0983 258.201 40.6831 258.967 38.2502C260.003 38.7458 261.039 39.3766 262.165 40.0974C262.795 40.548 263.471 40.9985 264.147 41.5391C264.417 41.7193 264.642 41.9446 264.913 42.1699C265.949 43.0259 266.849 43.9269 267.66 44.8731C267.705 44.9181 267.75 44.9632 267.75 45.0082C268.111 45.4137 268.426 45.7741 268.741 46.1796C269.327 46.9455 269.867 47.6664 270.408 48.4323C270.903 49.1982 271.354 49.919 271.759 50.6849C271.894 50.9552 272.075 51.2706 272.21 51.5409C274.417 55.8661 275.273 59.9208 275.633 62.1735C281.174 59.1099 286.714 56.0012 292.255 52.9376L296.399 61.8131Z" fill="#F29D36"/>
<path d="M289.372 54.8747L294.957 65.1919L296.399 62.0382L292.435 52.8022L289.372 54.8747Z" fill="#99641D"/>
<path d="M266.985 93.0801C265.318 93.7559 262.885 94.5668 259.913 95.2426C255.183 96.369 248.967 97.1799 241.94 96.5041C237.39 96.0536 232.48 95.0174 227.345 92.99C227.345 92.6746 227.39 92.4043 227.435 92.0889C227.48 91.6384 227.525 91.1878 227.57 90.7373L242.21 91.1428L260.048 91.6384L266.669 91.8186C266.804 92.2691 266.894 92.6746 266.985 93.0801Z" fill="#4B1FB5"/>
<path d="M265.363 74.3829C265.273 74.2928 265.183 74.1577 265.093 74.0676C264.507 62.579 262.75 45.684 262.12 40.0073C262.75 40.4579 263.426 40.9084 264.102 41.449C265.318 48.5224 265.408 65.2822 265.363 74.3829Z" fill="#99641D"/>
<path d="M266.985 82.2222C266.804 83.9342 266.084 85.3308 265.498 86.2319C260.723 86.7725 255.588 87.133 250.138 87.2681C242.3 87.4934 235.048 87.2231 228.471 86.6374C227.3 85.9616 225.814 84.8803 225.093 83.0782C224.102 80.5552 225.138 77.9421 225.498 76.996C225.769 76.3202 226.129 73.0313 226.76 66.7239C226.805 66.3634 226.85 65.958 226.895 65.5525C227.03 64.336 227.165 63.0295 227.255 61.6328C227.435 59.8758 227.615 57.9385 227.796 55.866C227.841 55.1452 227.931 54.4243 228.021 53.7035C228.021 53.6134 228.021 53.4782 228.066 53.3881C228.066 53.2529 228.111 53.1178 228.111 52.9826C228.201 51.8563 228.291 50.8651 228.381 49.9641C228.561 47.6213 228.652 45.9093 228.742 44.6478C228.922 41.449 228.922 40.9534 229.733 39.8721C234.507 33.2943 246.579 33.1592 254.327 35.6822C257.3 36.6283 259.822 37.4392 261.895 39.8721C263.876 42.2149 263.831 44.2423 263.922 50.1893C263.922 51.1354 263.967 52.1717 263.967 53.298C264.012 54.154 264.012 55.0551 264.057 56.0012C264.102 56.8572 264.147 57.7583 264.192 58.7494C264.192 58.8846 264.192 59.0648 264.237 59.2C264.282 60.0109 264.327 60.8219 264.372 61.5878C264.687 67.3997 264.913 71.3643 265.318 74.0675C265.543 75.5993 265.813 76.6806 266.129 77.4916C266.354 77.9421 267.21 79.8344 266.985 82.2222Z" fill="#F29D36"/>
<path d="M234.597 46.4949C234.688 52.0364 230.273 68.9314 225.724 76.185L226.489 69.0215L234.597 46.4949Z" fill="#99641D"/>
<path d="M228.516 85.3761L227.48 92.089C232.345 93.2604 238.561 94.2966 245.768 94.3867C254.237 94.5219 261.399 93.3505 266.804 92.089C266.174 89.2957 265.543 86.5024 264.958 83.6641L228.516 85.3761Z" fill="#F29D36"/>
<path d="M227.435 85.9617C229.012 86.277 230.588 86.5023 232.165 86.7276C233.742 86.9528 235.318 87.133 236.895 87.2682L239.282 87.4484L241.669 87.6286C243.246 87.6737 244.868 87.7638 246.444 87.7638C248.021 87.8088 249.642 87.7638 251.219 87.7187C252.795 87.6286 254.417 87.5836 255.994 87.4484C256.804 87.3583 257.57 87.3133 258.381 87.2682L260.768 86.9528C261.174 86.9078 261.579 86.8627 261.94 86.8177L263.111 86.6375L265.498 86.277V86.3221C262.39 86.9528 259.237 87.5385 256.039 87.8088C254.462 87.989 252.841 88.0341 251.264 88.1693C249.687 88.2143 248.066 88.2594 246.489 88.2143C243.291 88.1693 240.093 87.989 236.94 87.6286C233.742 87.2231 230.543 86.7276 227.435 85.9617Z" fill="#99641D"/>
<path d="M230.048 58.0737C230.003 58.389 229.778 59.2451 228.652 60.4164C228.381 60.6868 227.886 61.1373 227.3 61.5878C227.48 59.8307 227.661 57.8935 227.841 55.821C228.606 55.6859 229.327 55.776 229.733 56.2265C230.273 56.8122 230.093 57.8034 230.048 58.0737Z" fill="#FFE594"/>
<path d="M195.273 96.9094C195.408 96.9995 195.499 97.0896 195.634 97.1797C196.67 98.0358 197.706 98.8467 198.742 99.7027C198.922 99.8379 199.057 99.973 199.237 100.063C200.408 101.009 201.58 101.955 202.751 102.856C205.273 100.784 207.435 98.7566 209.327 96.8193C210.318 95.7831 211.264 94.7919 212.075 93.8458C213.291 92.4492 214.327 91.1877 215.228 90.0613C215.543 89.6108 215.904 89.2053 216.219 88.7998C216.354 88.6196 216.489 88.4845 216.58 88.3043C218.201 86.1417 219.552 84.0242 220.859 81.7715C221.534 80.6452 222.165 79.4738 222.796 78.2574C222.976 77.942 223.111 77.6266 223.291 77.3113C225.228 73.4818 227.165 69.1566 229.552 63.7953C231.399 59.6504 232.525 56.767 233.426 53.0726C234.372 49.2882 234.733 45.8191 234.868 42.9807C234.868 42.7555 234.913 42.5302 234.913 42.3049C234.958 41.2236 234.958 40.2325 234.958 39.3765C233.832 39.5567 232.435 39.872 230.904 40.4577C230.588 40.5929 230.318 40.683 230.003 40.8182C228.967 41.2687 227.931 41.8994 226.895 42.6654C226.174 43.206 225.543 43.7917 225.003 44.3774C224.778 44.6026 224.597 44.8279 224.417 45.0532C222.165 47.7113 221.084 50.7299 220.093 53.4331C219.733 54.4242 219.282 55.5506 218.832 56.722C218.742 56.9022 218.697 57.1274 218.607 57.3076C218.246 58.2087 217.886 59.1098 217.48 60.1009C217.39 60.3262 217.3 60.5515 217.21 60.7317C215.543 64.6513 213.516 69.2918 210.904 74.6531C208.562 77.9871 206.264 81.321 203.922 84.6549C203.742 84.9253 203.517 85.2406 203.336 85.511C202.48 86.7725 201.58 88.0339 200.724 89.2504C200.589 89.4306 200.499 89.5658 200.363 89.746C198.787 91.9986 197.255 94.2062 195.679 96.4589C195.499 96.6391 195.408 96.7743 195.273 96.9094Z" fill="#F29D36"/>
<path d="M196.625 94.4768L194.688 96.8196L202.39 103.127L204.327 101.685L196.625 94.4768Z" fill="#99641D"/>
<path d="M240.498 44.8277C240.498 44.8277 229.417 49.6484 223.156 46.765C224.102 44.3322 226.039 42.4399 227.03 42.4399C229.417 44.3772 235.273 45.9541 240.498 44.8277Z" fill="#99641D"/>
<path d="M255.588 35.9525C253.201 33.2943 250.813 31.9878 249.327 31.357C244.642 29.2846 240.498 30.0054 232.705 31.357C228.291 32.1229 227.39 32.7537 226.805 33.4745C224.462 36.403 225.904 42.4852 228.742 44.8279C233.291 48.6124 244.057 44.9631 255.588 35.9525Z" fill="#F29D36"/>
<path d="M246.804 16.5796C249.462 16.5796 251.579 18.7421 251.534 21.3552C251.489 23.1123 251.489 24.8243 251.444 26.5814C251.444 28.1583 251.399 29.7802 251.399 31.357C251.399 32.4834 251.354 33.6097 251.354 34.736C251.354 35.9525 250.859 37.1239 250.003 37.9799C249.417 38.5205 248.696 39.0161 247.705 39.2414C246.624 39.4666 245.498 39.2864 244.507 38.7908C242.976 37.9799 242.12 36.358 242.12 34.691V21.3102C242.075 18.6971 244.192 16.5796 246.804 16.5796Z" fill="#F7A0A0"/>
<path d="M251.444 26.5814C251.444 28.1583 251.399 29.7802 251.399 31.3571C247.12 30.1406 246.579 25.2749 246.579 25.2749L251.444 26.5814Z" fill="#B68089"/>
<path d="M251.489 42.981C251.534 42.3052 251.759 41.6745 252.075 41.0888C252.39 40.5031 252.795 39.9625 253.336 39.4669C253.877 39.0163 254.462 38.6559 255.138 38.4757C255.813 38.2955 256.534 38.3405 257.165 38.5658V38.6109C256.534 38.6109 255.904 38.701 255.318 38.9262C254.732 39.1515 254.192 39.5119 253.741 39.9625C253.291 40.3679 252.841 40.8635 252.48 41.3591C252.12 41.8547 251.804 42.4404 251.534 42.981H251.489Z" fill="#99641D"/>
<path d="M239.372 45.2333C239.732 44.963 240.138 44.7828 240.498 44.5575C240.904 44.3773 241.309 44.1521 241.714 43.9718C242.525 43.6114 243.381 43.3411 244.237 43.1158C245.093 42.9356 245.994 42.7554 246.895 42.8005C247.345 42.8455 247.795 42.8906 248.246 42.9807C248.696 43.1158 249.102 43.296 249.417 43.6114L249.372 43.6565C248.651 43.2059 247.705 43.1158 246.85 43.1158C245.994 43.1609 245.093 43.296 244.282 43.5213C242.615 43.9268 240.994 44.5125 239.372 45.2333Z" fill="#99641D"/>
<path d="M241.85 35.2317C241.94 35.5471 242.075 35.8624 242.21 36.1328C242.345 36.4031 242.48 36.6734 242.66 36.9437C243.021 37.4393 243.426 37.8448 243.922 38.1602C244.417 38.4755 245.003 38.7008 245.588 38.881C245.904 38.9711 246.219 39.0162 246.489 39.0612C246.804 39.1063 247.12 39.1513 247.435 39.1964V39.2414L246.444 39.2865C246.129 39.2414 245.814 39.2414 245.453 39.1964C244.823 39.1063 244.192 38.881 243.606 38.5206C242.66 37.7997 241.94 36.5382 241.85 35.2317Z" fill="#99641D"/>
<path d="M258.877 53.4331C258.741 53.4331 258.606 53.343 258.561 53.2079C257.345 48.252 251.94 40.1424 251.895 40.0523C251.804 39.9172 251.85 39.6919 251.985 39.6018C252.12 39.5117 252.345 39.5568 252.435 39.6919C252.66 40.0073 257.931 47.9817 259.192 53.0277C259.237 53.2079 259.147 53.3881 258.967 53.3881C258.922 53.4331 258.922 53.4331 258.877 53.4331Z" fill="white"/>
<path d="M243.426 55.2804C243.381 55.2804 243.336 55.2804 243.291 55.2353C243.156 55.1452 243.066 54.965 243.156 54.8299C245.453 50.2795 246.669 40.593 246.669 40.5029C246.669 40.3227 246.849 40.1876 247.03 40.2326C247.21 40.2326 247.345 40.4128 247.3 40.593C247.255 40.9985 246.039 50.4597 243.696 55.1002C243.651 55.1903 243.561 55.2804 243.426 55.2804Z" fill="white"/>
<path d="M242.796 111.462C242.525 111.462 242.3 111.462 242.03 111.417L242.075 111.011C253.201 111.777 255.273 94.6119 255.318 94.4316L255.723 94.4767C255.723 94.6569 253.651 111.462 242.796 111.462Z" fill="#4B1FB5"/>
<path d="M188.607 102.271C186.49 108.443 191.084 113.219 191.084 113.219L192.796 112.768C192.796 112.768 188.472 107.001 190.228 100.649L188.607 102.271Z" fill="#383334"/>
<path d="M261.219 70.3733C261.714 75.194 265.588 76.6357 262.66 84.1145C262.66 84.1145 250.048 86.2771 241.895 84.1145C241.895 84.1145 244.327 79.0235 242.66 71.3194L261.219 70.3733Z" fill="#99641D"/>
<path d="M254.958 11.5337C255.093 11.8491 255.318 12.615 254.958 12.9754C254.192 13.7864 251.129 10.092 249.192 12.0293C248.246 12.9754 246.759 13.9666 245.318 14.9127C243.877 15.8588 243.922 21.7608 242.931 21.941C241.94 22.1212 241.94 25.0046 241.94 25.0046C241.94 25.0046 237.12 25.0046 237.12 21.1301C237.12 17.2555 237.12 17.7511 237.12 17.7511C236.489 17.2104 236.264 16.6248 236.174 16.3094C235.769 14.7325 236.895 12.7502 239.057 11.4887C252.57 8.8756 254.552 10.6777 254.958 11.5337Z" fill="#383334"/>
<path d="M243.877 20.4542C243.832 21.4003 243.021 22.1662 242.075 22.1211C241.129 22.0761 240.363 21.2651 240.408 20.319C240.453 19.3729 241.264 18.607 242.21 18.652C243.156 18.6971 243.922 19.508 243.877 20.4542Z" fill="#F7A0A0"/>
<path d="M256.759 20.4991C256.759 20.7244 256.669 21.1749 256.624 21.7606C256.219 24.7792 255.678 27.3472 253.561 28.5186C251.489 29.69 248.832 29.0142 247.12 27.978C244.597 26.4462 243.922 23.9232 243.786 23.3375C243.922 20.4541 243.877 18.1564 243.832 16.6245C243.832 16.3993 243.832 16.174 243.832 15.9938C243.741 14.1016 243.741 13.0203 244.462 12.4346C245.498 11.6236 246.985 12.75 248.201 11.894C249.057 11.3083 249.237 10.0918 249.282 9.23581C249.868 10.4522 250.363 10.7226 250.723 10.7226C251.534 10.7226 251.759 9.28086 253.021 8.65011C253.967 8.15453 255.048 8.37979 255.904 8.65011C256.444 11.939 257.075 16.7146 256.759 20.4991Z" fill="#F7A0A0"/>
<path d="M250.363 18.3819C250.363 18.6973 250.093 18.9676 249.777 18.9225C249.462 18.9225 249.192 18.6522 249.237 18.3368C249.237 18.0215 249.507 17.7511 249.823 17.7962C250.138 17.7962 250.363 18.0665 250.363 18.3819Z" fill="#322223"/>
<path d="M255.588 18.5621C255.588 18.8774 255.318 19.1477 255.003 19.1027C254.687 19.1027 254.417 18.8324 254.462 18.517C254.462 18.2016 254.732 17.9313 255.048 17.9764C255.318 17.9764 255.588 18.2467 255.588 18.5621Z" fill="#322223"/>
<path d="M242.12 21.2201C242.075 21.2201 242.075 21.2201 242.03 21.2201C241.354 20.9048 241.039 20.5443 241.039 20.1839C241.084 19.6433 241.985 19.3729 242.21 19.3279C242.345 19.2828 242.435 19.3729 242.48 19.5081C242.525 19.6433 242.435 19.7334 242.3 19.7784C241.94 19.8685 241.489 20.0938 241.489 20.274C241.489 20.3191 241.489 20.5443 242.21 20.8597C242.3 20.9048 242.345 21.0399 242.3 21.13C242.3 21.1751 242.21 21.2201 242.12 21.2201Z" fill="#322223"/>
<path d="M254.237 23.3374C254.237 23.3374 250.273 23.2023 249.732 22.6616C249.732 22.6616 250.228 25.1846 251.895 25.2747C253.561 25.3198 254.237 23.3374 254.237 23.3374Z" fill="white"/>
<path d="M248.201 16.7599C248.021 16.7599 247.841 16.6698 247.75 16.5346C247.57 16.3094 247.66 15.9489 247.886 15.8138C249.687 14.5973 251.489 15.183 251.579 15.2281C251.85 15.3182 252.03 15.6335 251.94 15.9039C251.85 16.1742 251.534 16.3544 251.264 16.2643C251.219 16.2643 249.868 15.8138 248.516 16.7148C248.381 16.7148 248.291 16.7599 248.201 16.7599Z" fill="#1A2949"/>
<path d="M256.759 16.8051C256.669 16.8051 256.534 16.76 256.444 16.715C255.138 15.7688 253.786 16.0842 253.741 16.1293C253.471 16.2194 253.156 16.0392 253.066 15.7688C252.976 15.4985 253.156 15.1831 253.426 15.093C253.516 15.093 255.318 14.5524 257.075 15.859C257.3 16.0392 257.345 16.3545 257.21 16.6249C257.075 16.76 256.895 16.8051 256.759 16.8051Z" fill="#1A2949"/>
<path d="M255.949 7.47884C255.588 7.79422 255.048 8.1997 254.372 8.65023C254.282 8.69528 254.237 8.74034 254.147 8.78539C252.705 9.73151 250.678 10.8128 248.156 11.3084C248.066 11.3084 248.021 11.3534 247.931 11.3534C247.48 11.4435 247.03 11.4886 246.534 11.5336C245.994 11.5787 245.453 11.5787 244.958 11.5787C244.778 11.5787 244.642 11.5787 244.462 11.5787C243.426 11.5336 242.525 11.3534 241.714 11.1732C241.579 11.1282 241.399 11.0831 241.264 11.0381C240.769 10.9029 240.318 10.7677 239.958 10.6326C240.003 9.37108 240.228 7.07336 241.399 4.64049C242.075 3.24383 243.021 1.3516 244.552 0.495585C244.777 0.360426 245.003 0.27032 245.228 0.180214C245.408 0.135161 245.633 0.0901059 245.814 0.0450526C245.994 0.0450526 246.129 0 246.309 0C246.489 0 246.669 -6.8813e-07 246.85 0.0450526C246.94 0.0450526 246.985 0.0901052 247.075 0.0901052C247.21 0.135158 247.39 0.180213 247.525 0.225266H247.57C248.381 0.495586 249.192 0.991173 250.003 1.53181C250.408 1.80213 250.813 2.11751 251.264 2.43288C251.309 2.47793 251.354 2.52298 251.399 2.52298C253.741 4.28006 255.138 6.1723 255.949 7.47884Z" fill="#648EE2"/>
<path d="M241.805 11.1733L241.354 11.2634C241.354 11.2183 241.354 11.1282 241.354 11.0832C241.174 7.56902 243.741 2.29779 244.687 0.540713C244.913 0.405553 245.138 0.315448 245.363 0.225342C245.048 0.765981 241.489 7.34376 241.805 11.1733Z" fill="#4F4FC6"/>
<path d="M250.318 11.714C250.318 11.714 251.084 13.9667 253.516 13.4711C255.949 12.9755 255.453 13.9667 257.39 13.9667C259.327 13.9667 260.273 8.74049 256.174 10.1371C252.03 11.5338 250.318 11.714 250.318 11.714Z" fill="#383334"/>
<path d="M245.048 11.6236L244.642 11.8489C244.597 11.7588 244.597 11.7137 244.552 11.6236C243.516 8.15451 245.273 2.20748 245.994 0.0899745C246.174 0.0899745 246.309 0.0449219 246.489 0.0449219C245.814 1.89211 243.877 8.28967 245.048 11.6236Z" fill="#4F4FC6"/>
<path d="M248.201 11.3534H247.976H247.75C247.75 9.8216 247.39 3.19877 247.255 0.360407C247.255 0.2703 247.255 0.180194 247.255 0.0900879C247.39 0.135141 247.57 0.180196 247.705 0.225249C247.705 0.450516 247.75 0.720833 247.75 1.03621C247.886 4.14488 248.201 9.8216 248.201 11.3534Z" fill="#4F4FC6"/>
<path d="M254.417 8.83047H254.192H253.967C253.967 7.0734 251.804 3.78451 250.228 1.5769C250.633 1.84722 251.039 2.1626 251.489 2.47797C252.886 4.55042 254.372 7.02834 254.417 8.65026C254.417 8.74037 254.417 8.78542 254.417 8.83047Z" fill="#4F4FC6"/>
<path d="M251.579 8.87548L251.129 9.01064C250.498 5.58659 249.012 2.88339 247.705 1.08126C247.525 0.855996 247.39 0.630729 247.21 0.405463C247.12 0.315356 247.03 0.180194 246.985 0.0900879C247.075 0.0900879 247.12 0.13514 247.21 0.13514C247.345 0.180194 247.525 0.225248 247.66 0.270302C247.66 0.225248 247.66 0.22525 247.66 0.180197C247.705 0.22525 247.705 0.225248 247.75 0.270302C249.147 2.11749 250.904 5.091 251.579 8.87548Z" fill="#4F4FC6"/>
<path d="M240.048 9.23582C241.129 9.68635 242.435 10.0918 243.922 10.227C249.462 10.8127 253.877 7.74906 255.633 6.39746C255.904 6.62273 256.444 7.20842 256.759 8.15454C256.985 8.83034 256.985 9.41603 256.985 9.77645C255.678 10.9028 253.291 12.6599 250.003 13.4708C244.732 14.7774 240.543 12.75 239.102 11.939C239.147 11.5335 239.237 10.9478 239.507 10.272C239.687 9.82151 239.868 9.46108 240.048 9.23582Z" fill="#4F4FC6"/>
<path d="M252.345 22.6169C251.714 22.6169 251.444 22.3916 251.399 22.3466L251.759 21.9861C251.759 21.9861 252.21 22.3466 253.426 21.9411C253.561 21.896 253.696 21.8059 253.741 21.6257C254.057 20.8598 253.156 19.0577 252.795 18.4269L253.201 18.2017C253.336 18.472 254.597 20.6796 254.147 21.8059C254.057 22.0762 253.831 22.3015 253.516 22.3916C253.066 22.5718 252.66 22.6169 252.345 22.6169Z" fill="#322223"/>
<path d="M165.319 190.44C166.445 207.966 167.571 225.492 168.697 243.017C170.994 242.882 172.706 244.008 172.976 245.405C173.021 245.63 173.111 246.351 172.481 247.297C169.958 247.297 167.391 247.297 164.868 247.297C159.193 234.007 153.922 219.274 149.553 203.145C148.427 199 147.436 194.9 146.49 190.891C152.796 190.756 159.057 190.62 165.319 190.44Z" fill="#8C2915"/>
<path d="M163.202 192.693C162.616 195.892 161.67 199.586 160.138 203.641C158.292 208.552 156.039 212.606 153.967 215.76C153.382 212.922 152.751 209.678 151.94 206.119C152.661 204.272 153.832 201.794 155.814 199.271C158.382 195.892 161.265 193.864 163.202 192.693Z" fill="#383334"/>
<path d="M149.102 138.629L152.03 141.648L154.958 144.666C164.237 145.883 161.535 128.898 156.985 127.366C155.949 127.005 155.003 127.411 154.102 128.222C151.13 130.97 149.102 138.629 149.102 138.629Z" fill="#8C2915"/>
<path d="M149.102 138.629L152.03 141.648C153.111 139.034 152.481 136.917 152.481 134.169C152.481 132.592 153.382 130.069 154.148 128.222C151.13 130.97 149.102 138.629 149.102 138.629Z" fill="#383334"/>
<path d="M169.868 189.224C168.607 190.846 167.571 191.792 167.571 191.792C164.508 193.143 153.742 197.468 142.03 193.098C138.967 191.972 131.76 189.269 128.202 182.15C125.544 176.834 126.265 171.743 127.301 164.625C127.661 162.327 129.688 156.38 132.571 148.901C136.94 137.548 147.886 137.953 154.012 138.854C157.03 139.305 158.562 140.566 159.688 143.044C160.814 145.567 161.445 149.307 162.796 154.578C165.409 165.075 171.084 164.625 173.742 174.266C175.409 180.619 172.255 186.16 169.868 189.224Z" fill="#8C2915"/>
<path d="M171.039 189.224C166.265 187.692 153.787 182.105 145.994 179.132C136.94 175.618 136.49 171.247 136.49 163.814C136.49 156.38 142.391 148.946 147.346 144.125C152.346 139.305 155.499 144.125 155.499 144.125C157.03 143.179 158.832 142.774 160.454 143.089C161.625 145.612 162.301 149.352 163.652 154.623C166.355 165.12 172.255 164.67 174.958 174.311C176.76 180.619 173.517 186.16 171.039 189.224Z" fill="#F1F1FC"/>
<path d="M147.481 138.539L143.742 140.476L140.003 142.413C130.814 140.656 138.697 125.338 143.517 125.338C144.598 125.338 145.409 126.014 145.994 127.05C147.976 130.609 147.481 138.539 147.481 138.539Z" fill="#8C2915"/>
<path d="M147.03 150.703C150.544 152.731 152.571 155.164 153.607 157.687C154.057 158.768 153.967 159.083 154.463 160.3C156.129 164.309 159.823 167.733 161.4 167.058C162.571 166.562 162.616 163.724 162.346 162.057C160.949 154.443 148.832 151.154 147.03 150.703Z" fill="#F29493"/>
<path d="M148.247 151.019C147.706 150.839 147.301 150.748 147.03 150.703C148.112 151.334 149.057 152.01 149.868 152.686C149.373 152.1 148.832 151.559 148.247 151.019Z" fill="#383334"/>
<path d="M162.346 162.057C161.895 159.669 160.454 157.732 158.562 156.155C159.553 157.371 160.319 158.723 160.589 160.3C160.904 162.012 160.859 164.805 159.643 165.301C158.967 165.571 157.976 165.165 156.895 164.309C158.562 166.292 160.364 167.508 161.4 167.058C162.571 166.562 162.661 163.769 162.346 162.057Z" fill="#383334"/>
<path d="M151.85 150.253C152.572 150.253 153.156 149.668 153.156 148.946C153.156 148.225 152.572 147.64 151.85 147.64C151.129 147.64 150.544 148.225 150.544 148.946C150.544 149.668 151.129 150.253 151.85 150.253Z" fill="#383334"/>
<path d="M144.823 150.253C151.715 151.199 155.184 153.722 157.075 155.929C157.976 157.011 158.697 158.407 160.589 159.444C162.976 160.795 165.994 160.93 168.472 159.894C169.328 159.534 170.859 158.903 171.4 157.416C171.445 157.281 171.67 156.605 171.535 155.974C171.219 154.443 169.102 153.542 166.715 152.911C160.274 151.199 147.075 150.388 144.823 150.253Z" fill="#F1F1FC"/>
<path d="M159.688 148.946C159.688 149.667 159.102 150.253 158.382 150.253C157.661 150.253 157.075 149.667 157.075 148.946C157.075 148.225 157.661 147.64 158.382 147.64C159.102 147.64 159.688 148.225 159.688 148.946Z" fill="#383334"/>
<path d="M171.084 155.93C171.084 156.65 170.093 157.236 168.877 157.236C167.661 157.236 166.67 156.65 166.67 155.93C166.67 155.209 167.661 154.623 168.877 154.623C170.093 154.623 171.084 155.209 171.084 155.93Z" fill="#1A2A4F"/>
<path d="M147.481 138.539L143.742 140.476C143.562 137.683 144.823 135.836 145.679 133.223C146.175 131.736 146.13 129.033 145.949 127.05C147.976 130.609 147.481 138.539 147.481 138.539Z" fill="#383334"/>
<path d="M100.049 237.836C100.184 238.647 100.679 239.503 100.679 239.503C102.797 244.414 106.67 247.252 109.193 248.739H133.922C135.004 248.198 135.859 247.703 136.445 247.387C142.841 243.738 144.283 241.53 144.733 240.539C144.778 240.494 144.778 240.404 144.823 240.359C145.048 239.863 145.184 239.368 145.319 238.917C147.121 232.249 142.301 225.446 141.76 224.635C150.048 212.831 158.382 201.028 166.67 189.224C162.03 188.323 156.58 186.881 150.724 184.583C142.166 181.249 135.409 177.104 130.409 173.5C128.832 176.564 126.76 180.754 124.283 185.754C119.959 194.585 117.391 200.126 115.094 204.992C103.607 229.366 99.5083 234.322 100.049 237.836Z" fill="#8C2915"/>
<path d="M110.905 195.216C106.896 198.595 102.887 201.974 98.8326 205.353C100.139 205.173 101.58 204.902 103.157 204.407C106.941 203.19 109.733 201.208 111.49 199.721C110.499 203.19 108.878 205.083 107.616 206.254C105.274 208.416 103.562 208.281 100.634 211.075C100.184 211.525 99.1929 212.471 98.202 213.733C96.9407 215.31 95.6795 217.472 95.4092 219.815C94.7786 225.041 99.0578 230.853 105.905 234.232C105.815 235.899 105.454 237.656 104.148 238.602C99.5984 241.936 84.7336 234.052 78.7877 221.527C77.4814 218.779 73.6976 210.849 76.8057 203.866C77.5715 202.109 78.7426 200.487 80.2742 199.09C84.7786 194.855 92.3011 192.332 101.13 192.603C98.292 193.774 95.4542 194.946 92.5714 196.162C93.3822 198.324 94.2831 198.91 95.0038 199.045C97.0308 199.496 98.0218 196.162 102.391 194.405C103.968 193.774 106.4 192.558 108.742 193.504C109.778 193.954 110.499 194.675 110.905 195.216Z" fill="#8C2915"/>
<path d="M164.508 160.75C165.499 160.75 166.67 160.615 168.066 160.299C168.607 160.164 169.012 159.894 169.283 159.443C169.823 158.452 169.328 157.011 169.328 156.966L168.922 157.101C168.922 157.101 169.373 158.407 168.922 159.218C168.742 159.534 168.427 159.759 168.021 159.849C161.895 161.246 160.138 159.128 158.292 156.875C157.751 156.245 157.211 155.569 156.535 154.983C153.652 152.46 147.886 150.703 147.616 150.613L147.481 151.019C147.526 151.019 153.427 152.866 156.22 155.299C156.85 155.839 157.391 156.515 157.931 157.146C159.373 158.948 160.859 160.75 164.508 160.75Z" fill="#383334"/>
<path d="M113.067 196.162L100.319 203.821L112.391 199.361C111.4 202.74 109.823 204.767 108.427 206.074C105.995 208.326 104.283 208.146 101.265 211.029C100.769 211.48 99.7785 212.426 98.7425 213.778C97.7965 213.417 96.4002 212.741 94.5083 211.48C90.4543 208.777 89.5534 206.074 82.3912 204.767C79.4183 204.226 79.3733 201.613 80.3642 198.775C85.0038 194.45 92.7065 191.837 101.76 192.152L96.3101 196.207C98.5623 195.441 100.815 194.72 103.022 193.954C104.328 193.459 106.67 192.738 109.553 193.053C111.085 193.188 112.391 193.594 113.337 193.954C113.247 194.675 113.157 195.396 113.067 196.162Z" fill="#F1F1FC"/>
<path d="M135.769 210.038L136.445 247.387C142.841 243.738 144.283 241.531 144.733 240.539C144.778 240.494 144.778 240.404 144.823 240.359C145.048 239.864 145.184 239.368 145.319 238.917C142.796 229.501 138.517 214.589 135.769 210.038Z" fill="#383334"/>
<path d="M150.093 190.936C151.22 208.462 152.346 225.987 153.472 243.513C155.769 243.378 157.481 244.504 157.751 245.901C157.796 246.126 157.886 246.847 157.256 247.793C154.733 247.793 152.166 247.793 149.643 247.793C143.967 234.502 138.697 219.77 134.328 203.641C133.202 199.496 132.211 195.396 131.265 191.386C137.526 191.251 143.832 191.071 150.093 190.936Z" fill="#8C2915"/>
<path d="M127.211 179.763C128.652 188.954 149.643 198.37 165.409 192.693L161.67 196.297C161.67 196.297 134.373 203.956 125.499 183.187L127.211 179.763Z" fill="#383334"/>
<path d="M168.427 190.936C177.796 189.9 195.093 185.574 201.399 166.292C205.273 154.443 203.832 148.946 199.958 138.809C196.76 130.384 193.291 114.03 193.697 109.885L193.787 109.84C194.372 109.57 194.958 109.389 195.634 109.389C195.634 109.389 196.129 122.455 204.327 143.179C212.525 163.904 195.093 194.45 166.715 192.197L168.427 190.936Z" fill="#383334"/>
</svg>
