<svg width="54" height="54" viewBox="0 0 54 54" fill="none" xmlns="http://www.w3.org/2000/svg">
<path fill-rule="evenodd" clip-rule="evenodd" d="M49.8494 6.12807C49.8494 4.69649 48.423 3.71807 47.1127 4.25088L5.57702 21.1406C4.62608 21.5273 4.11874 22.5818 4.40343 23.5798L11.2929 47.7329C11.5397 48.598 12.3207 49.1934 13.2088 49.1934H47.855C48.9565 49.1934 49.8494 48.2879 49.8494 47.1709V6.12807ZM45.6281 0.496489C49.559 -1.10194 53.8383 1.83334 53.8383 6.12807V47.1709C53.8383 50.5219 51.1595 53.2384 47.855 53.2384H13.2088C10.5446 53.2384 8.20142 51.4521 7.46114 48.8568L0.571658 24.7038C-0.2824 21.7096 1.23961 18.5463 4.09244 17.3863L45.6281 0.496489Z" fill="#6B48FF"/>
</svg>
