<svg width="1109" height="262" viewBox="0 0 1109 262" fill="none" xmlns="http://www.w3.org/2000/svg">
<path d="M354.288 176.686C344.402 176.686 336.681 174.124 331.125 169.001C325.64 163.878 322.718 156.734 322.357 147.569C322.285 145.477 322.249 142.121 322.249 137.503C322.249 132.885 322.285 129.529 322.357 127.437C322.718 118.489 325.676 111.489 331.233 106.438C336.861 101.314 344.546 98.7528 354.288 98.7528C360.927 98.7528 366.628 99.8713 371.39 102.108C376.153 104.345 379.761 107.16 382.214 110.551C384.668 113.87 385.967 117.154 386.111 120.401V120.617C386.111 121.195 385.894 121.7 385.461 122.133C385.028 122.494 384.487 122.674 383.838 122.674H372.689C371.967 122.674 371.426 122.566 371.065 122.349C370.705 122.061 370.38 121.592 370.091 120.942C369.081 118.272 367.313 115.999 364.787 114.123C362.262 112.175 358.762 111.2 354.288 111.2C349.237 111.2 345.268 112.572 342.382 115.314C339.567 118.056 338.052 122.277 337.835 127.978C337.763 130.07 337.727 133.246 337.727 137.503C337.727 141.688 337.763 144.863 337.835 147.028C338.268 158.502 343.825 164.238 354.505 164.238C359.628 164.238 363.741 162.867 366.844 160.125C369.947 157.311 371.498 153.162 371.498 147.678V144.322H358.293C357.499 144.322 356.85 144.07 356.345 143.564C355.912 143.059 355.695 142.41 355.695 141.616V135.879C355.695 135.086 355.912 134.436 356.345 133.931C356.85 133.426 357.499 133.173 358.293 133.173H384.163C384.956 133.173 385.57 133.426 386.003 133.931C386.508 134.436 386.76 135.086 386.76 135.879V147.245C386.76 153.234 385.425 158.466 382.755 162.94C380.158 167.341 376.405 170.733 371.498 173.114C366.591 175.496 360.855 176.686 354.288 176.686ZM436.247 176.686C426.506 176.686 418.929 174.197 413.517 169.218C408.105 164.238 405.399 156.698 405.399 146.595V102.541C405.399 101.747 405.615 101.098 406.048 100.593C406.553 100.088 407.203 99.8352 407.997 99.8352H417.847C418.64 99.8352 419.254 100.088 419.687 100.593C420.192 101.098 420.444 101.747 420.444 102.541V146.595C420.444 152.368 421.815 156.734 424.557 159.692C427.3 162.579 431.196 164.022 436.247 164.022C441.299 164.022 445.159 162.579 447.829 159.692C450.571 156.734 451.942 152.368 451.942 146.595V102.541C451.942 101.747 452.195 101.098 452.7 100.593C453.205 100.088 453.855 99.8352 454.648 99.8352H464.39C465.184 99.8352 465.797 100.088 466.23 100.593C466.735 101.098 466.988 101.747 466.988 102.541V146.595C466.988 156.698 464.282 164.238 458.87 169.218C453.53 174.197 445.989 176.686 436.247 176.686ZM491.222 175.604C490.5 175.604 489.887 175.351 489.382 174.846C488.877 174.341 488.624 173.728 488.624 173.006V102.433C488.624 101.639 488.877 101.026 489.382 100.593C489.887 100.088 490.5 99.8352 491.222 99.8352H501.397C502.19 99.8352 502.804 100.088 503.237 100.593C503.742 101.026 503.994 101.639 503.994 102.433V173.006C503.994 173.728 503.742 174.341 503.237 174.846C502.804 175.351 502.19 175.604 501.397 175.604H491.222ZM521.727 175.604C521.15 175.604 520.609 175.387 520.104 174.954C519.671 174.521 519.454 173.98 519.454 173.331L519.671 172.357L545.757 102.541C546.262 100.737 547.525 99.8352 549.545 99.8352H561.343C563.22 99.8352 564.482 100.737 565.132 102.541L591.218 172.357C591.29 172.573 591.326 172.898 591.326 173.331C591.326 173.98 591.11 174.521 590.677 174.954C590.244 175.387 589.739 175.604 589.161 175.604H579.744C578.806 175.604 578.085 175.387 577.58 174.954C577.074 174.521 576.75 174.052 576.605 173.547L571.518 160.342H539.371L534.283 173.547C533.706 174.918 532.66 175.604 531.144 175.604H521.727ZM567.73 147.894L555.39 114.448L543.159 147.894H567.73ZM659.071 175.604C656.979 175.604 655.608 174.594 654.958 172.573L631.795 103.082L631.578 102.108C631.578 101.459 631.795 100.918 632.228 100.485C632.661 100.052 633.202 99.8352 633.851 99.8352H643.376C644.314 99.8352 645.036 100.088 645.541 100.593C646.118 101.026 646.515 101.567 646.732 102.217L665.025 157.961L683.317 102.217C683.462 101.639 683.822 101.098 684.4 100.593C684.977 100.088 685.735 99.8352 686.673 99.8352H696.198C696.775 99.8352 697.28 100.052 697.713 100.485C698.218 100.918 698.471 101.459 698.471 102.108L698.254 103.082L675.091 172.573C674.441 174.594 673.07 175.604 670.978 175.604H659.071ZM717.936 175.604C717.214 175.604 716.601 175.351 716.096 174.846C715.59 174.341 715.338 173.728 715.338 173.006V102.541C715.338 101.747 715.554 101.098 715.987 100.593C716.492 100.088 717.142 99.8352 717.936 99.8352H765.562C766.355 99.8352 767.005 100.088 767.51 100.593C768.015 101.098 768.268 101.747 768.268 102.541V109.685C768.268 110.479 768.015 111.128 767.51 111.633C767.005 112.066 766.355 112.283 765.562 112.283H729.95V131.442H763.18C763.974 131.442 764.624 131.694 765.129 132.199C765.634 132.632 765.886 133.246 765.886 134.039V140.75C765.886 141.544 765.634 142.193 765.129 142.699C764.624 143.132 763.974 143.348 763.18 143.348H729.95V163.156H766.428C767.221 163.156 767.871 163.409 768.376 163.914C768.881 164.419 769.134 165.068 769.134 165.862V173.006C769.134 173.8 768.881 174.449 768.376 174.954C767.871 175.387 767.221 175.604 766.428 175.604H717.936ZM807.35 175.604C806.629 175.604 806.015 175.351 805.51 174.846C805.005 174.341 804.752 173.728 804.752 173.006V113.149H784.728C784.006 113.149 783.393 112.896 782.888 112.391C782.383 111.886 782.13 111.273 782.13 110.551V102.541C782.13 101.747 782.347 101.098 782.78 100.593C783.285 100.088 783.934 99.8352 784.728 99.8352H839.931C840.724 99.8352 841.374 100.088 841.879 100.593C842.384 101.098 842.637 101.747 842.637 102.541V110.551C842.637 111.273 842.384 111.886 841.879 112.391C841.374 112.896 840.724 113.149 839.931 113.149H820.014V173.006C820.014 173.728 819.762 174.341 819.257 174.846C818.752 175.351 818.102 175.604 817.308 175.604H807.35Z" fill="#6B48FF"/>
<path d="M9 26.3689C9 14.1736 21.2688 5.79818 32.6264 10.24L212.293 80.5058C220.892 83.8688 225.341 93.3863 222.406 102.14L175.826 241.061C173.005 249.473 164.282 254.393 155.624 252.456L22.5368 222.675C14.6248 220.905 9 213.882 9 205.775V26.3689Z" stroke="#6B48FF" stroke-width="17.3185"/>
<path d="M28.5083 103.729C26.0363 95.1828 30.4417 86.1537 38.6992 82.8425L219.036 10.5292C230.414 5.96678 242.8 14.345 242.8 26.6036V202.328C242.8 211.893 235.046 219.646 225.482 219.646H75.0571C67.3457 219.646 60.5633 214.548 58.4206 207.14L28.5083 103.729Z" stroke="#6B48FF" stroke-width="17.3185"/>
</svg>
