<svg width="194" height="61" viewBox="0 0 194 61" fill="none" xmlns="http://www.w3.org/2000/svg">
<path d="M81.5222 41.8619C79.2452 41.8619 77.4669 41.2636 76.1871 40.0669C74.924 38.8703 74.2509 37.2017 74.1678 35.0612C74.1511 34.5725 74.1428 33.7888 74.1428 32.7101C74.1428 31.6314 74.1511 30.8477 74.1678 30.359C74.2509 28.269 74.9323 26.6342 76.212 25.4544C77.5084 24.2578 79.2785 23.6595 81.5222 23.6595C83.0513 23.6595 84.3643 23.9207 85.4612 24.4432C86.5581 24.9656 87.3891 25.623 87.9542 26.4151C88.5193 27.1904 88.8185 27.9572 88.8517 28.7157V28.7662C88.8517 28.9011 88.8019 29.0191 88.7021 29.1202C88.6024 29.2045 88.4778 29.2466 88.3282 29.2466H85.7604C85.5942 29.2466 85.4695 29.2213 85.3864 29.1707C85.3033 29.1033 85.2285 28.9938 85.162 28.8421C84.9293 28.2185 84.5221 27.6876 83.9404 27.2494C83.3587 26.7943 82.5527 26.5668 81.5222 26.5668C80.3588 26.5668 79.4447 26.887 78.7799 27.5275C78.1317 28.1679 77.7827 29.1539 77.7328 30.4854C77.7162 30.9741 77.7079 31.7157 77.7079 32.7101C77.7079 33.6876 77.7162 34.4292 77.7328 34.9348C77.8325 37.6146 79.1123 38.9545 81.5721 38.9545C82.7521 38.9545 83.6994 38.6343 84.4141 37.9939C85.1288 37.3365 85.4861 36.3674 85.4861 35.0865V34.3028H82.4446C82.2618 34.3028 82.1122 34.2438 81.9959 34.1258C81.8962 34.0079 81.8463 33.8562 81.8463 33.6708V32.3309C81.8463 32.1455 81.8962 31.9938 81.9959 31.8758C82.1122 31.7578 82.2618 31.6989 82.4446 31.6989H88.403C88.5858 31.6989 88.7271 31.7578 88.8268 31.8758C88.9431 31.9938 89.0013 32.1455 89.0013 32.3309V34.9854C89.0013 36.3843 88.6938 37.6062 88.0789 38.6512C87.4805 39.6793 86.6163 40.4714 85.4861 41.0276C84.3559 41.5838 83.0346 41.8619 81.5222 41.8619Z" fill="#4D4E6C"/>
<path d="M100.399 41.8619C98.1556 41.8619 96.4105 41.2804 95.164 40.1175C93.9174 38.9545 93.2942 37.1933 93.2942 34.8337V24.5443C93.2942 24.3589 93.344 24.2072 93.4438 24.0892C93.5601 23.9713 93.7097 23.9123 93.8925 23.9123H96.1612C96.344 23.9123 96.4853 23.9713 96.585 24.0892C96.7013 24.2072 96.7595 24.3589 96.7595 24.5443V34.8337C96.7595 36.182 97.0753 37.2017 97.7069 37.8927C98.3384 38.5669 99.2359 38.904 100.399 38.904C101.563 38.904 102.452 38.5669 103.067 37.8927C103.698 37.2017 104.014 36.182 104.014 34.8337V24.5443C104.014 24.3589 104.072 24.2072 104.189 24.0892C104.305 23.9713 104.455 23.9123 104.637 23.9123H106.881C107.064 23.9123 107.205 23.9713 107.305 24.0892C107.421 24.2072 107.48 24.3589 107.48 24.5443V34.8337C107.48 37.1933 106.856 38.9545 105.61 40.1175C104.38 41.2804 102.643 41.8619 100.399 41.8619Z" fill="#4D4E6C"/>
<path d="M113.061 41.6091C112.895 41.6091 112.754 41.5501 112.637 41.4321C112.521 41.3141 112.463 41.1709 112.463 41.0023V24.519C112.463 24.3336 112.521 24.1904 112.637 24.0892C112.754 23.9713 112.895 23.9123 113.061 23.9123H115.405C115.587 23.9123 115.729 23.9713 115.828 24.0892C115.945 24.1904 116.003 24.3336 116.003 24.519V41.0023C116.003 41.1709 115.945 41.3141 115.828 41.4321C115.729 41.5501 115.587 41.6091 115.405 41.6091H113.061Z" fill="#4D4E6C"/>
<path d="M120.087 41.6091C119.954 41.6091 119.83 41.5585 119.713 41.4574C119.614 41.3563 119.564 41.2298 119.564 41.0782L119.614 40.8506L125.622 24.5443C125.738 24.1229 126.029 23.9123 126.494 23.9123H129.212C129.644 23.9123 129.935 24.1229 130.084 24.5443L136.093 40.8506C136.109 40.9012 136.117 40.977 136.117 41.0782C136.117 41.2298 136.068 41.3563 135.968 41.4574C135.868 41.5585 135.752 41.6091 135.619 41.6091H133.45C133.234 41.6091 133.068 41.5585 132.951 41.4574C132.835 41.3563 132.76 41.2467 132.727 41.1287L131.555 38.0444H124.151L122.979 41.1287C122.846 41.4489 122.605 41.6091 122.256 41.6091H120.087ZM130.683 35.1371L127.841 27.3252L125.023 35.1371H130.683Z" fill="#4D4E6C"/>
<path d="M151.721 41.6091C151.239 41.6091 150.923 41.3731 150.773 40.9012L145.438 24.6707L145.388 24.4432C145.388 24.2915 145.438 24.1651 145.538 24.064C145.638 23.9628 145.762 23.9123 145.912 23.9123H148.106C148.322 23.9123 148.488 23.9713 148.604 24.0892C148.737 24.1904 148.829 24.3168 148.879 24.4685L153.092 37.4882L157.305 24.4685C157.338 24.3336 157.421 24.2072 157.554 24.0892C157.687 23.9713 157.862 23.9123 158.078 23.9123H160.272C160.405 23.9123 160.521 23.9628 160.621 24.064C160.737 24.1651 160.795 24.2915 160.795 24.4432L160.746 24.6707L155.41 40.9012C155.261 41.3731 154.945 41.6091 154.463 41.6091H151.721Z" fill="#4D4E6C"/>
<path d="M165.279 41.6091C165.112 41.6091 164.971 41.5501 164.855 41.4321C164.738 41.3141 164.68 41.1709 164.68 41.0023V24.5443C164.68 24.3589 164.73 24.2072 164.83 24.0892C164.946 23.9713 165.096 23.9123 165.279 23.9123H176.248C176.431 23.9123 176.58 23.9713 176.697 24.0892C176.813 24.2072 176.871 24.3589 176.871 24.5443V26.2128C176.871 26.3982 176.813 26.5499 176.697 26.6679C176.58 26.769 176.431 26.8196 176.248 26.8196H168.046V31.2944H175.699C175.882 31.2944 176.032 31.3533 176.148 31.4713C176.265 31.5725 176.323 31.7157 176.323 31.9011V33.4685C176.323 33.6539 176.265 33.8056 176.148 33.9236C176.032 34.0247 175.882 34.0753 175.699 34.0753H168.046V38.7017H176.447C176.63 38.7017 176.78 38.7607 176.896 38.8787C177.012 38.9967 177.071 39.1484 177.071 39.3338V41.0023C177.071 41.1877 177.012 41.3394 176.896 41.4574C176.78 41.5585 176.63 41.6091 176.447 41.6091H165.279Z" fill="#4D4E6C"/>
<path d="M185.873 41.6091C185.707 41.6091 185.565 41.5501 185.449 41.4321C185.333 41.3141 185.274 41.1709 185.274 41.0023V27.0218H180.662C180.496 27.0218 180.355 26.9629 180.239 26.8449C180.122 26.7269 180.064 26.5836 180.064 26.4151V24.5443C180.064 24.3589 180.114 24.2072 180.214 24.0892C180.33 23.9713 180.479 23.9123 180.662 23.9123H193.377C193.56 23.9123 193.709 23.9713 193.826 24.0892C193.942 24.2072 194 24.3589 194 24.5443V26.4151C194 26.5836 193.942 26.7269 193.826 26.8449C193.709 26.9629 193.56 27.0218 193.377 27.0218H188.79V41.0023C188.79 41.1709 188.731 41.3141 188.615 41.4321C188.499 41.5501 188.349 41.6091 188.166 41.6091H185.873Z" fill="#4D4E6C"/>
<path fill-rule="evenodd" clip-rule="evenodd" d="M0 6.07328C0 1.80071 4.23867 -1.1336 8.16254 0.422578L49.5439 16.8341C52.5147 18.0123 54.0517 21.3467 53.0376 24.4137L42.3091 56.8605C41.3346 59.8078 38.3212 61.5314 35.3297 60.8526L4.67674 53.8971C1.94328 53.2768 0 50.8165 0 47.976V6.07328ZM6.7097 4.18971C5.40174 3.67099 3.98885 4.64909 3.98885 6.07328V47.976C3.98885 48.9228 4.63661 49.7429 5.54777 49.9497L36.2007 56.9053C37.1979 57.1315 38.2024 56.557 38.5272 55.5746L49.2556 23.1278C49.5937 22.1055 49.0814 20.994 48.0911 20.6013L6.7097 4.18971Z" fill="#6B48FF"/>
<path fill-rule="evenodd" clip-rule="evenodd" d="M53.8494 6.12807C53.8494 4.69649 52.423 3.71807 51.1127 4.25088L9.57702 21.1406C8.62608 21.5273 8.11874 22.5818 8.40343 23.5798L15.2929 47.7329C15.5397 48.598 16.3207 49.1934 17.2088 49.1934H51.855C52.9565 49.1934 53.8494 48.2879 53.8494 47.1709V6.12807ZM49.6281 0.496489C53.559 -1.10194 57.8383 1.83334 57.8383 6.12807V47.1709C57.8383 50.5219 55.1595 53.2384 51.855 53.2384H17.2088C14.5446 53.2384 12.2014 51.4521 11.4611 48.8568L4.57166 24.7038C3.7176 21.7096 5.23961 18.5463 8.09244 17.3863L49.6281 0.496489Z" fill="#6B48FF"/>
</svg>
