<svg width="106" height="106" viewBox="0 0 106 106" fill="none" xmlns="http://www.w3.org/2000/svg">
<circle opacity="0.4" cx="53" cy="53" r="53" fill="#C4C4C4"/>
<path fill-rule="evenodd" clip-rule="evenodd" d="M68.5361 39.3307C73.4025 39.7369 77.25 43.7815 77.25 48.75V55.875C77.25 59.8033 74.0533 63 70.125 63C70.125 68.2393 65.8643 72.5 60.625 72.5C60.4801 72.5 60.3448 72.4644 60.1999 72.4573C59.2285 75.2384 56.6089 77.25 53.5 77.25C50.3911 77.25 47.7715 75.2384 46.8001 72.4573C46.6553 72.4644 46.5199 72.5 46.375 72.5C41.1358 72.5 36.875 68.2393 36.875 63C32.9468 63 29.75 59.8033 29.75 55.875V48.75C29.75 43.7815 33.5975 39.7369 38.4639 39.3307C41.1215 33.6806 46.8548 29.75 53.5 29.75C60.1453 29.75 65.8785 33.6806 68.5361 39.3307ZM72.5 55.875V48.75C72.5 46.9949 71.5429 45.4606 70.125 44.6389V46.375V55.875V58.25C71.4336 58.25 72.5 57.1836 72.5 55.875ZM65.375 63V60.625V55.875V46.375C65.375 39.8271 60.0479 34.5 53.5 34.5C46.9521 34.5 41.625 39.8271 41.625 46.375V55.875V60.625V63C41.625 65.6196 43.7554 67.75 46.375 67.75C48.9946 67.75 51.125 65.6196 51.125 63V59.9671C49.7119 59.143 48.75 57.6277 48.75 55.875C48.75 53.253 50.878 51.125 53.5 51.125C56.122 51.125 58.25 53.253 58.25 55.875C58.25 57.6277 57.2881 59.143 55.875 59.9671V63C55.875 65.6196 58.0054 67.75 60.625 67.75C63.2446 67.75 65.375 65.6196 65.375 63ZM53.5 72.5C54.4738 72.5 55.3074 71.9086 55.6755 71.0679C54.8538 70.5644 54.1318 69.9374 53.5 69.2178C52.8683 69.9374 52.1463 70.5644 51.3245 71.0679C51.6926 71.9086 52.5263 72.5 53.5 72.5ZM34.5 55.875C34.5 57.1836 35.5664 58.25 36.875 58.25V55.875V46.375V44.6389C35.4571 45.4606 34.5 46.9949 34.5 48.75V55.875ZM48.75 44C50.061 44 51.125 45.064 51.125 46.375C51.125 47.686 50.061 48.75 48.75 48.75C47.439 48.75 46.375 47.686 46.375 46.375C46.375 45.064 47.439 44 48.75 44ZM58.25 44C59.561 44 60.625 45.064 60.625 46.375C60.625 47.686 59.561 48.75 58.25 48.75C56.939 48.75 55.875 47.686 55.875 46.375C55.875 45.064 56.939 44 58.25 44Z" fill="#ADADAD"/>
</svg>
