<svg width="106" height="106" viewBox="0 0 106 106" fill="none" xmlns="http://www.w3.org/2000/svg">
<circle opacity="0.4" cx="53" cy="53" r="53" fill="#C4C4C4"/>
<path fill-rule="evenodd" clip-rule="evenodd" d="M76.8729 63.7174C78.2505 63.9919 79.1426 65.3313 78.8681 66.7064C78.6267 67.9137 77.5642 68.7499 76.3773 68.7499C76.2121 68.7499 76.0443 68.7346 75.8766 68.699L70.8568 67.6951L62.9217 75.6302C62.4464 76.108 61.7983 76.3749 61.1247 76.3749H45.8747C45.2012 76.3749 44.5556 76.108 44.0778 75.6302L36.1427 67.6951L31.1229 68.699C30.9552 68.7346 30.7874 68.7499 30.6222 68.7499C29.4353 68.7499 28.3728 67.9137 28.1339 66.7064C27.8569 65.3313 28.749 63.9919 30.1266 63.7174L33.1664 63.1074V56.7557L30.0071 55.9653C28.6473 55.6247 27.8188 54.2446 28.1593 52.8822C28.4999 51.5224 29.88 50.6939 31.2424 51.0344L33.1664 51.5148V46.1265L30.6756 33.6647C30.4773 32.6785 30.8815 31.6695 31.7024 31.09C32.5259 30.5105 33.6138 30.4698 34.4754 30.9883L46.5788 38.2499H60.4207L72.5241 30.9883C73.3857 30.4673 74.4736 30.5079 75.2971 31.09C76.118 31.6695 76.5222 32.6785 76.3265 33.6647L73.8331 46.1265V51.5148L75.7571 51.0344C77.1169 50.6939 78.4996 51.5224 78.8402 52.8822C79.1807 54.2446 78.3522 55.6247 76.9924 55.9653L73.8331 56.7557V63.1074L76.8729 63.7174ZM60.0725 71.2915L64.8661 66.498L63.1682 66.1574C61.7907 65.8829 60.8985 64.5434 61.1756 63.1684C61.4475 61.7933 62.7845 60.8987 64.1646 61.1757L68.7498 62.0907V58.0266L66.8257 58.507C66.6173 58.5603 66.4114 58.5832 66.2055 58.5832C65.0669 58.5832 64.0324 57.8131 63.7427 56.6592C63.4021 55.2968 64.2307 53.9167 65.5905 53.5761L68.7498 52.7857V45.8749C68.7498 45.7071 68.765 45.5419 68.8006 45.3767L70.2137 38.3032L62.4337 42.9697C62.0372 43.2087 61.5848 43.3332 61.1247 43.3332H45.8747C45.4147 43.3332 44.9623 43.2087 44.5658 42.9697L36.7858 38.3032L38.2015 45.3767C38.2345 45.5419 38.2497 45.7071 38.2497 45.8749V52.7857L41.409 53.5761C42.7688 53.9167 43.5974 55.2968 43.2568 56.6592C42.9696 57.8131 41.9326 58.5832 40.794 58.5832C40.5881 58.5832 40.3822 58.5603 40.1738 58.507L38.2497 58.0266V62.0907L42.8349 61.1757C44.2201 60.9012 45.552 61.7933 45.8265 63.1684C46.101 64.5434 45.2088 65.8829 43.8312 66.1574L42.1334 66.498L46.927 71.2915H60.0725ZM56.0417 56.0415C57.4447 56.0415 58.5833 57.1802 58.5833 58.5832C58.5833 59.9862 57.4447 61.1249 56.0417 61.1249H50.9583C49.5553 61.1249 48.4167 59.9862 48.4167 58.5832C48.4167 57.1802 49.5553 56.0415 50.9583 56.0415H56.0417ZM50.9583 50.9582C50.9583 52.3612 49.8197 53.4999 48.4167 53.4999C47.0137 53.4999 45.875 52.3612 45.875 50.9582C45.875 49.5552 47.0137 48.4165 48.4167 48.4165C49.8197 48.4165 50.9583 49.5552 50.9583 50.9582ZM58.5833 48.4165C59.9863 48.4165 61.125 49.5552 61.125 50.9582C61.125 52.3612 59.9863 53.4999 58.5833 53.4999C57.1803 53.4999 56.0417 52.3612 56.0417 50.9582C56.0417 49.5552 57.1803 48.4165 58.5833 48.4165Z" fill="#ADADAD"/>
</svg>
