<svg width="368" height="494" viewBox="0 0 368 494" fill="none" xmlns="http://www.w3.org/2000/svg">
<path d="M257.06 215.312C257.06 215.312 253.767 232.199 259.916 244.832C262.217 249.56 265.446 246.893 265.162 243.322C264.878 239.751 264.34 229.456 264.34 229.456" fill="#B2EEE6"/>
<path d="M271.324 215.312C271.324 215.312 268.031 232.199 274.181 244.832C276.481 249.56 279.71 246.893 279.426 243.322C279.142 239.751 278.604 229.456 278.604 229.456" fill="#B2EEE6"/>
<path d="M183.88 488.177C182.838 477.307 179.57 452.071 170.722 435.955L145.6 464.408C145.6 464.408 150.132 469.729 147.25 479.576C145.963 483.825 143.401 487.575 139.912 490.32C139.615 490.543 139.397 490.855 139.289 491.211C139.18 491.566 139.187 491.947 139.309 492.298C139.43 492.649 139.66 492.953 139.965 493.165C140.27 493.377 140.634 493.488 141.006 493.48H179.096C179.769 493.48 180.435 493.339 181.05 493.065C181.665 492.792 182.216 492.392 182.667 491.892C183.118 491.392 183.459 490.804 183.668 490.164C183.877 489.524 183.949 488.847 183.88 488.177Z" fill="#F97171"/>
<path d="M151.453 457.766L146.965 466.803C147.853 468.947 148.283 471.252 148.229 473.572L180.942 467.442C178.894 456.83 175.696 444.968 170.747 435.955L151.453 457.766Z" fill="#D85D5D"/>
<path d="M147.616 474.04C149.12 473.545 150.737 473.51 152.261 473.939C152.345 473.961 152.435 473.95 152.51 473.906C152.585 473.863 152.64 473.792 152.663 473.708C152.685 473.624 152.674 473.535 152.631 473.459C152.587 473.384 152.516 473.329 152.432 473.307C150.797 472.845 149.062 472.878 147.446 473.401C147.06 473.528 147.224 474.134 147.616 474.033V474.04Z" fill="#3A3144"/>
<path d="M147.439 477.212C148.772 476.8 150.188 476.733 151.554 477.016C151.952 477.099 152.122 476.492 151.724 476.384C150.247 476.074 148.715 476.139 147.269 476.574C147.185 476.597 147.113 476.652 147.07 476.727C147.027 476.802 147.015 476.892 147.038 476.975C147.061 477.059 147.116 477.131 147.191 477.174C147.266 477.217 147.355 477.229 147.439 477.206V477.212Z" fill="#3A3144"/>
<path d="M147.035 480.252C148.478 479.856 150.015 480.003 151.358 480.663C151.724 480.84 152.047 480.296 151.68 480.119C150.189 479.376 148.477 479.207 146.87 479.645C146.787 479.667 146.715 479.721 146.671 479.796C146.627 479.871 146.615 479.96 146.637 480.044C146.658 480.127 146.713 480.199 146.787 480.243C146.862 480.287 146.951 480.299 147.035 480.277V480.252Z" fill="#3A3144"/>
<path d="M145.821 483.614C147.683 483.097 149.665 483.215 151.452 483.949C151.825 484.101 151.99 483.494 151.617 483.317C149.721 482.545 147.621 482.427 145.651 482.982C145.567 483.005 145.495 483.06 145.452 483.135C145.409 483.211 145.397 483.3 145.42 483.384C145.443 483.468 145.498 483.539 145.573 483.582C145.648 483.625 145.738 483.637 145.821 483.614Z" fill="#3A3144"/>
<path d="M163.581 476.076C163.665 476.076 163.745 476.042 163.805 475.983C163.864 475.924 163.898 475.843 163.898 475.759C163.898 475.675 163.864 475.595 163.805 475.535C163.745 475.476 163.665 475.443 163.581 475.443C163.497 475.443 163.417 475.476 163.357 475.535C163.298 475.595 163.265 475.675 163.265 475.759C163.265 475.843 163.298 475.924 163.357 475.983C163.417 476.042 163.497 476.076 163.581 476.076Z" fill="#3A3144"/>
<path d="M166.602 475.392C166.685 475.392 166.766 475.359 166.825 475.3C166.884 475.24 166.918 475.16 166.918 475.076C166.918 474.992 166.884 474.912 166.825 474.853C166.766 474.794 166.685 474.76 166.602 474.76C166.518 474.76 166.437 474.794 166.378 474.853C166.319 474.912 166.286 474.992 166.286 475.076C166.286 475.16 166.319 475.24 166.378 475.3C166.437 475.359 166.518 475.392 166.602 475.392Z" fill="#3A3144"/>
<path d="M165.913 479.367C165.996 479.367 166.077 479.334 166.136 479.275C166.195 479.216 166.229 479.135 166.229 479.051C166.229 478.968 166.195 478.887 166.136 478.828C166.077 478.769 165.996 478.735 165.913 478.735C165.829 478.735 165.748 478.769 165.689 478.828C165.63 478.887 165.597 478.968 165.597 479.051C165.597 479.135 165.63 479.216 165.689 479.275C165.748 479.334 165.829 479.367 165.913 479.367Z" fill="#3A3144"/>
<path d="M171.266 479.236C171.35 479.236 171.431 479.202 171.49 479.143C171.549 479.084 171.583 479.003 171.583 478.919C171.583 478.835 171.549 478.755 171.49 478.695C171.431 478.636 171.35 478.603 171.266 478.603C171.182 478.603 171.102 478.636 171.042 478.695C170.983 478.755 170.95 478.835 170.95 478.919C170.95 479.003 170.983 479.084 171.042 479.143C171.102 479.202 171.182 479.236 171.266 479.236Z" fill="#3A3144"/>
<path d="M317.504 263.963C309.56 271.439 291.592 289.489 284.299 306.357L322.168 308.784C322.168 308.784 323.603 301.946 333.178 298.167C337.324 296.592 341.855 296.334 346.153 297.427C346.506 297.512 346.877 297.485 347.214 297.35C347.552 297.215 347.839 296.979 348.037 296.674C348.234 296.369 348.332 296.01 348.318 295.647C348.303 295.284 348.176 294.934 347.954 294.646L324.583 264.519C324.172 263.992 323.656 263.557 323.068 263.24C322.479 262.924 321.832 262.733 321.166 262.681C320.5 262.629 319.83 262.716 319.2 262.936C318.57 263.157 317.992 263.507 317.504 263.963Z" fill="#F97171"/>
<path d="M313.32 308.216L323.192 306.231C324.351 304.222 325.916 302.477 327.787 301.106L302.899 278.986C295.77 287.107 288.363 296.903 284.261 306.339L313.32 308.216Z" fill="#D85D5D"/>
<path d="M328.501 301.264C327.208 300.393 326.204 299.156 325.619 297.712C325.474 297.339 324.861 297.497 324.987 297.876C325.618 299.476 326.72 300.847 328.147 301.807C328.482 302.041 328.779 301.491 328.463 301.264H328.501Z" fill="#3A3144"/>
<path d="M331.117 299.456C329.976 298.646 329.06 297.559 328.457 296.296C328.28 295.929 327.736 296.252 327.907 296.618C328.565 297.976 329.562 299.14 330.801 300C331.136 300.233 331.433 299.684 331.117 299.456Z" fill="#3A3144"/>
<path d="M333.772 297.914C332.576 297.009 331.754 295.695 331.465 294.223C331.389 293.825 330.776 293.989 330.833 294.387C331.163 296.019 332.089 297.47 333.431 298.457C333.753 298.704 334.063 298.154 333.747 297.914H333.772Z" fill="#3A3144"/>
<path d="M337.172 296.814C335.632 295.679 334.518 294.058 334.012 292.213C334.001 292.172 333.982 292.133 333.955 292.099C333.929 292.065 333.896 292.036 333.859 292.015C333.822 291.993 333.781 291.979 333.738 291.974C333.695 291.968 333.652 291.971 333.611 291.983C333.569 291.994 333.53 292.013 333.496 292.039C333.462 292.065 333.434 292.098 333.412 292.135C333.391 292.173 333.377 292.214 333.371 292.256C333.366 292.299 333.369 292.342 333.38 292.384C333.93 294.381 335.139 296.134 336.812 297.358C337.14 297.604 337.444 297.054 337.128 296.814H337.172Z" fill="#3A3144"/>
<path d="M320.114 287.928C320.198 287.928 320.279 287.895 320.338 287.836C320.397 287.777 320.43 287.696 320.43 287.612C320.43 287.529 320.397 287.448 320.338 287.389C320.279 287.33 320.198 287.296 320.114 287.296C320.031 287.296 319.95 287.33 319.891 287.389C319.832 287.448 319.798 287.529 319.798 287.612C319.798 287.696 319.832 287.777 319.891 287.836C319.95 287.895 320.031 287.928 320.114 287.928Z" fill="#3A3144"/>
<path d="M317.719 285.963C317.803 285.963 317.883 285.929 317.942 285.87C318.002 285.811 318.035 285.731 318.035 285.647C318.035 285.563 318.002 285.483 317.942 285.423C317.883 285.364 317.803 285.331 317.719 285.331C317.635 285.331 317.555 285.364 317.496 285.423C317.436 285.483 317.403 285.563 317.403 285.647C317.403 285.731 317.436 285.811 317.496 285.87C317.555 285.929 317.635 285.963 317.719 285.963Z" fill="#3A3144"/>
<path d="M321.296 284.067C321.38 284.067 321.46 284.033 321.52 283.974C321.579 283.915 321.612 283.835 321.612 283.751C321.612 283.667 321.579 283.587 321.52 283.527C321.46 283.468 321.38 283.435 321.296 283.435C321.212 283.435 321.132 283.468 321.073 283.527C321.013 283.587 320.98 283.667 320.98 283.751C320.98 283.835 321.013 283.915 321.073 283.974C321.132 284.033 321.212 284.067 321.296 284.067Z" fill="#3A3144"/>
<path d="M317.896 279.915C317.98 279.915 318.06 279.881 318.119 279.822C318.179 279.763 318.212 279.682 318.212 279.599C318.212 279.515 318.179 279.434 318.119 279.375C318.06 279.316 317.98 279.283 317.896 279.283C317.812 279.283 317.732 279.316 317.672 279.375C317.613 279.434 317.58 279.515 317.58 279.599C317.58 279.682 317.613 279.763 317.672 279.822C317.732 279.881 317.812 279.915 317.896 279.915Z" fill="#3A3144"/>
<path d="M214.311 203.759C214.311 203.759 157.14 254.262 142.718 333.224C133.485 383.784 161.868 462.689 161.868 462.689" stroke="#F79F84" stroke-width="80" stroke-miterlimit="10"/>
<path d="M223.02 194.228C204.06 205.724 151.503 317.184 214.311 355.325C238.422 369.968 311.14 293.06 311.14 293.06" stroke="#FFA97F" stroke-width="80" stroke-miterlimit="10"/>
<path d="M57.0064 125.359C57.0064 123.197 52.9489 121.264 46.591 119.993C43.4528 119.362 40.571 117.818 38.3075 115.555C36.044 113.291 34.4998 110.409 33.8689 107.271C32.6049 100.913 30.6646 96.8557 28.5032 96.8557C26.3418 96.8557 24.4078 100.913 23.1375 107.271C22.5005 110.404 20.9539 113.28 18.691 115.538C16.4281 117.796 13.5495 119.337 10.4154 119.968C4.05745 121.232 0 123.172 0 125.334C0 127.495 4.03217 129.448 10.4154 130.712C13.5524 131.343 16.4332 132.887 18.6965 135.149C20.9597 137.411 22.5047 140.291 23.1375 143.428C24.4015 149.786 26.3418 153.843 28.5032 153.843C30.6646 153.843 32.5985 149.786 33.8689 143.428C34.5002 140.29 36.0446 137.41 38.3081 135.147C40.5716 132.885 43.4533 131.342 46.591 130.712C52.9489 129.448 57.0064 127.552 57.0064 125.359Z" fill="#FFECE5"/>
<path d="M198.991 46.9972C198.991 45.7332 196.577 44.564 192.804 43.8372C190.932 43.4642 189.212 42.5447 187.863 41.1949C186.513 39.845 185.593 38.1254 185.22 36.2532C184.462 32.4612 183.324 30.0659 182.029 30.0659C180.733 30.0659 179.595 32.4738 178.837 36.2532C178.467 38.1215 177.552 39.8386 176.209 41.1881C174.865 42.5377 173.151 43.4594 171.285 43.8372C167.493 44.5893 165.097 45.7332 165.097 46.9972C165.097 48.2612 167.505 49.4304 171.285 50.1888C173.152 50.5658 174.865 51.4873 176.209 52.837C177.553 54.1867 178.468 55.9041 178.837 57.7728C179.595 61.5648 180.733 63.9601 182.029 63.9601C183.324 63.9601 184.462 61.5522 185.22 57.7728C185.592 55.9003 186.512 54.1802 187.862 52.8302C189.212 51.4802 190.932 50.561 192.804 50.1888C196.577 49.4304 198.991 48.2865 198.991 46.9972Z" fill="#FFECE5"/>
<path d="M109.709 184.729C110.619 183.819 109.709 181.304 107.592 178.093C106.537 176.51 105.975 174.651 105.975 172.749C105.975 170.848 106.537 168.989 107.592 167.406C109.728 164.202 110.619 161.686 109.709 160.776C108.799 159.866 106.29 160.776 103.079 162.9C101.495 163.951 99.6366 164.512 97.7356 164.512C95.8347 164.512 93.9759 163.951 92.3921 162.9C89.1878 160.764 86.6724 159.866 85.7624 160.776C84.8523 161.686 85.7624 164.202 87.8796 167.406C88.9339 168.989 89.4965 170.848 89.4965 172.749C89.4965 174.651 88.9339 176.51 87.8796 178.093C85.7434 181.304 84.8523 183.819 85.7624 184.729C86.6724 185.639 89.1878 184.729 92.3921 182.605C93.9759 181.554 95.8347 180.994 97.7356 180.994C99.6366 180.994 101.495 181.554 103.079 182.605C106.29 184.742 108.805 185.639 109.709 184.729Z" fill="#FFECE5"/>
<path d="M303.505 131.66C304.042 131.123 303.505 129.625 302.241 127.716C301.622 126.779 301.292 125.68 301.292 124.556C301.292 123.433 301.622 122.334 302.241 121.396C303.505 119.5 304.042 117.996 303.505 117.453C302.968 116.909 301.47 117.453 299.562 118.717C298.62 119.341 297.516 119.674 296.386 119.674C295.256 119.674 294.151 119.341 293.21 118.717C291.314 117.453 289.81 116.915 289.273 117.453C288.735 117.99 289.273 119.488 290.537 121.396C291.162 122.332 291.495 123.431 291.495 124.556C291.495 125.681 291.162 126.781 290.537 127.716C289.273 129.612 288.742 131.123 289.273 131.66C289.804 132.197 291.308 131.66 293.21 130.396C294.15 129.768 295.255 129.433 296.386 129.433C297.516 129.433 298.621 129.768 299.562 130.396C301.47 131.666 302.968 132.197 303.505 131.66Z" fill="#FFECE5"/>
<path d="M366.427 193.609C368.007 192.022 366.427 187.643 362.73 182.056C360.897 179.299 359.919 176.063 359.919 172.753C359.919 169.442 360.897 166.206 362.73 163.45C366.453 157.863 368.007 153.483 366.427 151.897C364.847 150.31 360.461 151.897 354.874 155.594C352.118 157.427 348.882 158.405 345.571 158.405C342.261 158.405 339.025 157.427 336.268 155.594C330.681 151.871 326.302 150.317 324.715 151.897C323.129 153.477 324.715 157.863 328.413 163.45C330.246 166.206 331.224 169.442 331.224 172.753C331.224 176.063 330.246 179.299 328.413 182.056C324.69 187.643 323.135 192.022 324.715 193.609C326.295 195.195 330.681 193.609 336.268 189.911C339.025 188.078 342.261 187.1 345.571 187.1C348.882 187.1 352.118 188.078 354.874 189.911C360.48 193.634 364.841 195.176 366.427 193.609Z" fill="#FFECE5"/>
<path d="M317.454 67.8912C319.982 65.3632 317.498 58.4112 311.576 49.519C308.661 45.1317 307.106 39.9817 307.106 34.7144C307.106 29.4471 308.661 24.297 311.576 19.9098C317.498 11.0239 319.969 4.05922 317.454 1.53754C314.938 -0.984137 307.974 1.4933 299.081 7.41514C294.695 10.3332 289.545 11.89 284.277 11.89C279.009 11.89 273.858 10.3332 269.472 7.41514C260.624 1.4933 253.622 -0.977817 251.1 1.53754C248.578 4.0529 251.056 11.0175 256.978 19.9098C259.896 24.2958 261.452 29.4463 261.452 34.7144C261.452 39.9824 259.896 45.1329 256.978 49.519C251.056 58.4049 248.585 65.3759 251.1 67.8912C253.615 70.4066 260.58 67.9354 269.472 62.0136C273.859 59.0988 279.009 57.5439 284.277 57.5439C289.544 57.5439 294.694 59.0988 299.081 62.0136C307.967 67.9354 314.938 70.4066 317.454 67.8912Z" fill="#FFECE5"/>
<path d="M104.912 54.3474C105.539 56.9587 106.697 59.4132 108.312 61.5585C109.633 63.3913 111.125 65.9383 113.463 66.4944C115.801 67.0506 116.85 63.3976 114.474 62.8351C113.728 62.6582 113.21 61.7734 112.78 61.2109C112.148 60.4083 111.516 59.593 110.967 58.7461C109.824 57.1156 109.005 55.2814 108.552 53.3425C108.028 50.9599 104.375 51.9647 104.893 54.3474H104.912Z" fill="#3EB7B2"/>
<path d="M101.227 57.7602C102.218 59.9672 103.454 62.0555 104.912 63.9854C106.043 65.5148 107.566 68.2767 109.532 68.7191C111.908 69.2499 112.926 65.597 110.543 65.0598C110.764 65.2431 110.758 65.2115 110.543 64.965L110 64.333L109.292 63.4735C108.628 62.6519 107.996 61.8176 107.396 60.9455C106.28 59.3423 105.319 57.6367 104.526 55.8515C103.547 53.6269 100.279 55.5545 101.253 57.7475L101.227 57.7602Z" fill="#3EB7B2"/>
<path d="M98.099 62.9868C100.462 65.5934 103.095 67.9408 105.955 69.9894C107.933 71.424 109.829 68.1376 107.851 66.7156C105.268 64.8357 102.893 62.6852 100.766 60.3008C99.1292 58.487 96.4558 61.173 98.0864 62.9868H98.099Z" fill="#3EB7B2"/>
<path d="M96.399 67.8534C98.2381 69.3702 100.254 70.7037 101.916 72.4227C103.578 74.1418 106.296 71.5 104.596 69.743C102.896 67.9861 100.924 66.6905 99.0786 65.1674C98.7162 64.8256 98.2369 64.6353 97.7388 64.6353C97.2407 64.6353 96.7614 64.8256 96.399 65.1674C96.2222 65.3435 96.0819 65.5528 95.9863 65.7833C95.8906 66.0137 95.8413 66.2608 95.8413 66.5104C95.8413 66.7599 95.8906 67.007 95.9863 67.2375C96.0819 67.4679 96.2222 67.6772 96.399 67.8534Z" fill="#3EB7B2"/>
<path d="M122.14 81.0557L102.51 74.8685C102.51 74.8685 109.058 52.976 120.206 57.2357C131.355 61.4953 122.14 81.0557 122.14 81.0557Z" fill="#3EB7B2"/>
<path d="M103.831 31.1783L98.7058 61.7545C98.5827 62.4939 98.7145 63.2531 99.0797 63.9077C99.4449 64.5623 100.022 65.0733 100.716 65.3569L112.471 70.1475C112.934 70.3357 113.434 70.4162 113.933 70.3828C114.432 70.3493 114.917 70.2029 115.351 69.9545C115.785 69.7061 116.157 69.3622 116.439 68.949C116.72 68.5357 116.904 68.0638 116.977 67.5689L121.192 38.8192C121.286 38.179 121.188 37.5255 120.913 36.9401C120.638 36.3546 120.196 35.8631 119.644 35.5265L108.805 28.9095C108.345 28.6281 107.822 28.4639 107.284 28.4314C106.745 28.3989 106.207 28.499 105.716 28.723C105.225 28.9469 104.796 29.2879 104.468 29.716C104.139 30.144 103.921 30.6462 103.831 31.1783Z" fill="#F97171"/>
<path d="M116.636 53.5258C120.807 60.3388 123.234 68.6243 118.045 75.5889C117.223 76.6823 117.862 78.4077 118.949 79.046C120.213 79.7981 121.59 79.2356 122.406 78.1359C128.644 69.7745 126.04 59.2075 121.003 50.9599C119.309 48.1917 114.935 50.7261 116.636 53.4879V53.5258Z" fill="#3EB7B2"/>
<path d="M214.311 231.75C229.77 231.75 242.302 219.218 242.302 203.759C242.302 188.299 229.77 175.767 214.311 175.767C198.852 175.767 186.32 188.299 186.32 203.759C186.32 219.218 198.852 231.75 214.311 231.75Z" fill="#FFA97F"/>
<path d="M203.839 221.252C204.888 221.783 210.791 222.365 217.263 227.478" stroke="#3EB7B2" stroke-width="8" stroke-miterlimit="10" stroke-linecap="round"/>
<path d="M221.194 246.937L222.072 224.88C222.072 224.88 197.595 223.616 197.867 236.363C198.138 249.111 221.194 246.937 221.194 246.937Z" fill="#3EB7B2"/>
<path d="M190.719 237.425C190.719 237.425 195.383 227.876 210.696 226.776" stroke="#3EB7B2" stroke-width="6" stroke-miterlimit="10" stroke-linecap="round"/>
<path d="M201.115 234.613C200.963 234.644 195.187 238.828 193.531 243.36" stroke="#3EB7B2" stroke-width="6" stroke-miterlimit="10" stroke-linecap="round"/>
<path d="M203.523 240.547C203.384 240.604 198.739 242.778 197.867 247.499" stroke="#3EB7B2" stroke-width="6" stroke-miterlimit="10" stroke-linecap="round"/>
<path d="M209.748 244.03C209.603 244.067 204.692 245.439 203.011 249.97" stroke="#3EB7B2" stroke-width="6" stroke-miterlimit="10" stroke-linecap="round"/>
<path d="M188.481 192.97L237.24 219.78C237.24 219.78 249.438 206.375 240.994 189.905" fill="#F79F84"/>
<path d="M214.286 119.115C215.853 124.853 216.302 134.965 218.16 140.603" stroke="#3EB7B2" stroke-width="30" stroke-miterlimit="10"/>
<path d="M205.836 125.327L206.904 132.071C211.61 130.391 215.684 127.301 218.571 123.223C214.63 125.175 210.196 125.907 205.836 125.327Z" fill="#3A3144"/>
<path d="M221.378 95.3062C224.64 97.1106 227.052 100.137 228.083 103.719C229.113 107.302 228.679 111.147 226.874 114.409L224.763 118.225C222.44 122.426 218.542 125.531 213.929 126.858C209.316 128.186 204.364 127.626 200.163 125.302C197.838 124.016 196.12 121.859 195.385 119.306C194.651 116.753 194.96 114.013 196.246 111.688L202.27 100.799C203.164 99.1832 204.367 97.7595 205.811 96.609C207.255 95.4585 208.912 94.6038 210.686 94.0937C212.461 93.5837 214.318 93.4282 216.153 93.6362C217.988 93.8443 219.763 94.4117 221.378 95.3062Z" fill="#3EB7B2"/>
<path d="M203.769 108.068C204.331 108.068 204.787 107.612 204.787 107.05C204.787 106.488 204.331 106.032 203.769 106.032C203.207 106.032 202.752 106.488 202.752 107.05C202.752 107.612 203.207 108.068 203.769 108.068Z" fill="#3A3144"/>
<path d="M204.717 102.658C205.18 102.722 205.632 102.845 206.064 103.024C206.208 103.107 206.379 103.13 206.54 103.087C206.701 103.044 206.839 102.94 206.923 102.797C207.009 102.652 207.033 102.48 206.992 102.318C206.95 102.156 206.846 102.016 206.702 101.931C206.067 101.664 205.4 101.484 204.717 101.394C204.55 101.394 204.389 101.46 204.271 101.579C204.152 101.697 204.085 101.858 204.085 102.026C204.085 102.193 204.152 102.354 204.271 102.472C204.389 102.591 204.55 102.658 204.717 102.658Z" fill="#3A3144"/>
<path d="M196.735 108.377C196.192 109.742 196.836 112.169 198.581 112.51L199.813 108.624C199.895 108.358 198.732 107.593 198.549 107.53C198.375 107.455 198.188 107.418 197.999 107.421C197.81 107.424 197.623 107.467 197.452 107.547C197.281 107.627 197.128 107.742 197.005 107.885C196.881 108.028 196.789 108.196 196.735 108.377Z" fill="#3EB7B2"/>
<path d="M234.308 136.122L194.018 136.526C191.813 136.549 189.635 137.022 187.619 137.915C185.604 138.809 183.791 140.105 182.294 141.724C180.797 143.343 179.646 145.251 178.913 147.331C178.179 149.41 177.878 151.618 178.028 153.818L180.493 190.152C180.588 191.534 181.173 192.836 182.143 193.826C183.112 194.815 184.403 195.426 185.783 195.549L244.723 200.788C246.206 200.92 247.683 200.477 248.85 199.551C250.016 198.626 250.783 197.289 250.992 195.814L255.96 160.808C256.398 157.721 256.164 154.575 255.274 151.587C254.383 148.598 252.858 145.838 250.802 143.493C248.746 141.149 246.207 139.277 243.361 138.005C240.514 136.732 237.426 136.09 234.308 136.122Z" fill="#3E83D6"/>
<path d="M274.945 219.824C270.983 230.568 255.739 234.885 240.899 229.418C226.06 223.951 224.069 204.555 228.038 193.786C232.007 183.016 241.411 192.041 256.251 197.508C271.09 202.975 278.914 209.08 274.945 219.824Z" fill="#B2EEE6"/>
<path d="M248.478 189.997C250.888 183.452 247.083 176.026 239.979 173.41C232.874 170.793 225.161 173.977 222.751 180.521C220.341 187.065 224.146 194.491 231.25 197.108C238.354 199.725 246.067 196.541 248.478 189.997Z" fill="#B2EEE6"/>
<path d="M200.173 112.504L202.55 112.365C202.629 112.359 202.708 112.372 202.781 112.404C202.854 112.436 202.917 112.486 202.966 112.548C203.015 112.611 203.047 112.685 203.061 112.763C203.074 112.841 203.068 112.922 203.043 112.997C202.758 113.989 202.063 115.753 200.723 115.702C199.383 115.651 199.396 114.033 199.51 113.136C199.527 112.969 199.604 112.814 199.725 112.698C199.847 112.582 200.006 112.514 200.173 112.504Z" fill="#3A3144"/>
<path d="M200.723 115.683C201.633 115.683 202.246 114.918 202.619 114.09C201.665 113.654 200.42 114.388 199.655 114.975C199.74 115.188 199.888 115.37 200.079 115.496C200.269 115.623 200.494 115.688 200.723 115.683Z" fill="#8AD6CC"/>
<path d="M199.813 98.1766C199.655 98.3473 212.523 102.253 212.523 102.253L215.841 101.059L214.286 102.481L216.858 103.94V109.502C216.858 109.502 217.49 106.209 220.65 107.442C223.81 108.674 221.579 113.724 217.768 113.414L218.299 122.458C218.36 123.514 218.823 124.507 219.593 125.233C220.362 125.96 221.381 126.364 222.439 126.364H238.915C239.048 126.364 239.18 126.334 239.3 126.277C239.421 126.219 239.527 126.136 239.611 126.032C239.695 125.929 239.755 125.808 239.787 125.678C239.818 125.549 239.821 125.414 239.793 125.283C238.744 120.227 233.84 99.2321 224.625 96.761C223.67 96.4945 222.794 96 222.072 95.32C219.083 92.5455 210.576 86.7311 199.813 98.1766Z" fill="#3A3144"/>
<path d="M114.044 73.5349C114.044 73.5349 108.672 150.222 201.147 149.135" stroke="#3E83D6" stroke-width="40" stroke-miterlimit="10"/>
<path d="M218.552 150.986C218.83 148.515 265.434 136.122 280.873 197.931C290.884 237.988 217.793 236.231 217.793 236.231" stroke="#3E83D6" stroke-width="40" stroke-miterlimit="10"/>
<path d="M177.08 148.244C176.887 152.357 177.21 156.478 178.041 160.511C178.199 161.307 179.419 160.972 179.261 160.176C178.457 156.252 178.149 152.244 178.344 148.244C178.382 147.428 177.118 147.435 177.08 148.244Z" fill="#3A3144"/>
<path d="M250.12 169.264C251.355 169.459 252.477 170.094 253.28 171.053C253.805 171.685 254.696 170.775 254.171 170.155C253.223 169.042 251.915 168.298 250.474 168.051C249.678 167.912 249.337 169.131 250.139 169.264H250.12Z" fill="#3A3144"/>
<path d="M229.86 178.317C231.171 178.091 231.904 176 231.499 173.648C231.093 171.295 229.702 169.571 228.391 169.797C227.081 170.023 226.347 172.113 226.753 174.466C227.158 176.819 228.549 178.543 229.86 178.317Z" fill="#B2EEE6"/>
<path d="M250.067 183.063C251.901 181.535 252.699 179.468 251.848 178.446C250.997 177.424 248.82 177.834 246.985 179.362C245.151 180.889 244.353 182.956 245.204 183.978C246.055 185 248.232 184.59 250.067 183.063Z" fill="#B2EEE6"/>
<path d="M227.128 199.695C227.128 199.695 223.842 216.582 229.985 229.209C232.285 233.937 235.515 231.27 235.23 227.699C234.946 224.128 234.409 213.839 234.409 213.839" fill="#B2EEE6"/>
<path d="M244.906 199.284C244.906 199.284 241.62 216.171 247.763 228.798C250.063 233.526 253.293 230.859 253.015 227.288C252.737 223.717 252.187 213.428 252.187 213.428" fill="#B2EEE6"/>
<path d="M229.296 180.128C230.173 180.49 230.908 181.13 231.388 181.948C231.431 182.019 231.501 182.069 231.581 182.089C231.662 182.109 231.747 182.096 231.818 182.054C231.889 182.012 231.941 181.943 231.962 181.863C231.983 181.783 231.972 181.698 231.931 181.626C231.4 180.713 230.589 179.995 229.618 179.578C229.245 179.42 228.923 179.964 229.296 180.128Z" fill="#3EB7B2"/>
<path d="M238.833 185.064C239.808 184.857 240.821 184.916 241.765 185.235C242.157 185.361 242.321 184.754 241.936 184.603C240.882 184.253 239.753 184.194 238.668 184.432C238.27 184.514 238.441 185.127 238.833 185.064Z" fill="#3EB7B2"/>
<path d="M232.399 185.228C232.654 185.654 233.032 185.992 233.484 186.197C233.935 186.403 234.439 186.466 234.927 186.379C235.325 186.315 235.155 185.702 234.756 185.747C234.404 185.8 234.043 185.746 233.721 185.593C233.399 185.44 233.13 185.194 232.949 184.887C232.905 184.817 232.836 184.766 232.755 184.746C232.675 184.726 232.59 184.739 232.519 184.781C232.447 184.823 232.396 184.892 232.374 184.972C232.353 185.052 232.364 185.137 232.405 185.209L232.399 185.228Z" fill="#3EB7B2"/>
<path d="M230.838 187.933C232.14 189.052 233.505 187.788 233.998 186.537C234.131 186.202 233.587 185.98 233.423 186.29C233.063 186.96 232.728 187.782 233.101 188.515C233.228 188.792 233.447 189.017 233.721 189.152C233.995 189.287 234.307 189.323 234.605 189.254C235.003 189.166 234.832 188.553 234.434 188.622C233.126 188.919 233.695 187.086 233.966 186.593L233.391 186.347C233.088 187.124 232.19 188.243 231.287 187.466C230.977 187.2 230.528 187.649 230.838 187.914V187.933Z" fill="#3EB7B2"/>
<path d="M226.294 182.6C226.378 182.6 226.459 182.567 226.518 182.507C226.578 182.448 226.611 182.368 226.611 182.284C226.611 182.2 226.578 182.119 226.518 182.06C226.459 182.001 226.378 181.967 226.294 181.967C226.21 181.967 226.13 182.001 226.071 182.06C226.011 182.119 225.978 182.2 225.978 182.284C225.978 182.368 226.011 182.448 226.071 182.507C226.13 182.567 226.21 182.6 226.294 182.6Z" fill="#3EB7B2"/>
<path d="M228.253 182.599C228.337 182.599 228.417 182.566 228.477 182.507C228.536 182.447 228.569 182.367 228.569 182.283C228.569 182.199 228.536 182.119 228.477 182.06C228.417 182 228.337 181.967 228.253 181.967C228.169 181.967 228.089 182 228.03 182.06C227.97 182.119 227.937 182.199 227.937 182.283C227.937 182.367 227.97 182.447 228.03 182.507C228.089 182.566 228.169 182.599 228.253 182.599Z" fill="#3EB7B2"/>
<path d="M227.324 184.35C227.408 184.35 227.488 184.316 227.548 184.257C227.607 184.198 227.64 184.118 227.64 184.034C227.64 183.95 227.607 183.87 227.548 183.81C227.488 183.751 227.408 183.718 227.324 183.718C227.24 183.718 227.16 183.751 227.101 183.81C227.041 183.87 227.008 183.95 227.008 184.034C227.008 184.118 227.041 184.198 227.101 184.257C227.16 184.316 227.24 184.35 227.324 184.35Z" fill="#3EB7B2"/>
<path d="M241.323 188.363C241.407 188.363 241.487 188.33 241.546 188.271C241.606 188.211 241.639 188.131 241.639 188.047C241.639 187.963 241.606 187.883 241.546 187.824C241.487 187.764 241.407 187.731 241.323 187.731C241.239 187.731 241.159 187.764 241.099 187.824C241.04 187.883 241.007 187.963 241.007 188.047C241.007 188.131 241.04 188.211 241.099 188.271C241.159 188.33 241.239 188.363 241.323 188.363Z" fill="#3EB7B2"/>
<path d="M242.745 188.692V188.439C242.479 188.742 242.928 189.191 243.194 188.888C243.275 188.803 243.321 188.689 243.321 188.572C243.321 188.454 243.275 188.34 243.194 188.256C242.922 187.952 242.479 188.401 242.745 188.704V188.692Z" fill="#3EB7B2"/>
<path d="M241.664 190.834C241.748 190.834 241.828 190.801 241.888 190.742C241.947 190.682 241.98 190.602 241.98 190.518C241.98 190.434 241.947 190.354 241.888 190.295C241.828 190.235 241.748 190.202 241.664 190.202C241.58 190.202 241.5 190.235 241.441 190.295C241.381 190.354 241.348 190.434 241.348 190.518C241.348 190.602 241.381 190.682 241.441 190.742C241.5 190.801 241.58 190.834 241.664 190.834Z" fill="#3EB7B2"/>
<path d="M232.905 198.02C236.344 198.93 239.985 198.708 243.288 197.388C243.661 197.243 243.497 196.63 243.118 196.756C239.926 198.045 236.403 198.266 233.075 197.388C232.991 197.365 232.902 197.377 232.827 197.42C232.752 197.463 232.697 197.535 232.674 197.619C232.651 197.702 232.663 197.792 232.706 197.867C232.749 197.942 232.821 197.997 232.905 198.02Z" fill="#3EB7B2"/>
<path d="M242.062 214.8C243.718 215.432 244.097 217.283 244.394 218.825C244.47 219.224 245.077 219.053 245.026 218.655C244.685 216.847 244.154 214.901 242.258 214.187C241.873 214.048 241.708 214.654 242.088 214.819L242.062 214.8Z" fill="#3EB7B2"/>
<path d="M235.641 214.174C235.265 214.489 234.97 214.889 234.778 215.34C234.587 215.792 234.506 216.282 234.541 216.771C234.541 217.176 235.174 217.176 235.174 216.771C235.139 216.366 235.204 215.958 235.364 215.583C235.524 215.208 235.773 214.879 236.09 214.623C236.4 214.357 235.951 213.915 235.641 214.174Z" fill="#3EB7B2"/>
</svg>
