<svg width="30" height="30" viewBox="0 0 30 30" fill="none" xmlns="http://www.w3.org/2000/svg">
<path d="M21.2504 4.95L21.2499 4.95C20.2425 4.95089 19.2766 5.35179 18.5647 6.06456C18.0046 6.6187 17.6305 7.33326 17.4944 8.10933C17.3582 8.88545 17.4667 9.6847 17.8048 10.3965L17.8352 10.4605L17.8853 10.4104L22.8853 5.41036L22.935 5.36065L22.8718 5.33C22.3661 5.08502 21.8123 4.95524 21.2504 4.95ZM19.6146 12.0896L19.5645 12.1398L19.6285 12.1702C20.3347 12.5056 21.1273 12.6151 21.898 12.4836C22.6687 12.3521 23.3801 11.9861 23.9352 11.4355C24.4954 10.8813 24.8694 10.1668 25.0056 9.39067C25.1417 8.61455 25.0332 7.8153 24.6951 7.10355L24.6647 7.03954L24.6146 7.08965L19.6146 12.0896ZM15.1472 25.3834L15.1468 25.3828L15.1404 25.3888C13.7555 26.7109 11.9147 27.449 9.99999 27.45C8.52296 27.4487 7.07964 27.0085 5.85339 26.1851C4.62714 25.3617 3.6733 24.1924 3.11306 22.8258C2.55282 21.4591 2.41147 19.9568 2.70696 18.5096C3.00245 17.0624 3.72144 15.7357 4.7726 14.6981L4.73747 14.6625L4.77277 14.6979C5.45963 14.0133 6.27498 13.4711 7.17199 13.1025C8.069 12.7339 9.02999 12.5461 9.99977 12.55L9.99997 12.5L9.99995 12.55C11.4594 12.5508 12.8864 12.9802 14.1039 13.785C15.3214 14.5897 16.2757 15.7343 16.8484 17.0767C17.421 18.4191 17.5868 19.9001 17.3251 21.3359C17.0634 22.7716 16.3858 24.0989 15.3764 25.1529L15.376 25.1526L15.372 25.1581C15.3412 25.2004 15.3129 25.2445 15.2872 25.2901L15.1472 25.3834ZM5.73533 17.4646L5.68949 17.4188L5.6568 17.4748C5.09639 18.4343 4.86811 19.5519 5.00735 20.6544C5.14658 21.7568 5.64555 22.7826 6.42692 23.5727L6.46247 23.5375L6.42731 23.5731C7.2174 24.3544 8.24315 24.8534 9.3456 24.9926C10.4481 25.1319 11.5656 24.9036 12.5252 24.3432L12.5812 24.3105L12.5353 24.2646L5.73533 17.4646ZM14.2646 22.5354L14.3107 22.5814L14.3433 22.525C14.7852 21.7595 15.0186 20.8915 15.0199 20.0076C15.0212 19.1237 14.7906 18.2549 14.3509 17.4881C13.9113 16.7213 13.2781 16.0833 12.5146 15.6379C11.7512 15.1925 10.8842 14.9553 10.0003 14.95L9.99945 14.95C9.11022 14.9592 8.23919 15.2031 7.47445 15.657L7.41911 15.6899L7.46462 15.7354L14.2646 22.5354ZM22.4649 2.66799C23.6672 2.90595 24.772 3.49489 25.6397 4.3604C26.217 4.93633 26.6751 5.62051 26.9877 6.37375C27.3003 7.12699 27.4611 7.93449 27.4611 8.75C27.4611 9.56552 27.3003 10.373 26.9877 11.1263C26.6751 11.8795 26.217 12.5637 25.6397 13.1396C24.772 14.0051 23.6672 14.5941 22.4649 14.832C21.2627 15.07 20.0169 14.9463 18.8849 14.4766C17.7529 14.0068 16.7855 13.2122 16.1049 12.1929C15.4244 11.1737 15.0611 9.97558 15.0611 8.75C15.0611 7.52443 15.4244 6.32634 16.1049 5.3071C16.7855 4.28785 17.7529 3.49317 18.8849 3.02345C20.0169 2.55373 21.2627 2.43003 22.4649 2.66799Z" fill="#0D3F67" stroke="#0D3F67" stroke-width="0.1"/>
</svg>
