<svg width="35" height="34" viewBox="0 0 35 34" fill="none" xmlns="http://www.w3.org/2000/svg">
<path d="M23.7229 15.0325L23.7229 15.0326L16.5027 22.0436L23.7229 15.0325ZM23.7229 15.0325C24.8791 13.9079 24.8791 12.0777 23.7229 10.9531L23.7229 10.9531C23.1442 10.391 22.3848 10.1116 21.6259 10.1116C21.3681 10.1116 21.1144 10.155 20.8683 10.218L20.782 10.2401L20.8459 10.3023L21.5896 11.0262L21.5897 11.0263C22.1396 11.5591 22.1396 12.4248 21.5897 12.9576L21.5896 12.9577C21.3151 13.2244 20.9545 13.3586 20.5934 13.3586C20.2324 13.3586 19.8718 13.2244 19.5972 12.9577L18.5662 11.9547L18.5314 11.9208L18.4965 11.9547L17.4654 12.9577L17.4286 12.9936L17.4655 13.0294L18.4965 14.0309L23.7229 15.0325ZM14.3869 22.0578L14.3723 22.0436L12.3105 20.0392C12.3104 20.0392 12.3104 20.0392 12.3104 20.0392C12.0264 19.7662 11.8707 19.3976 11.8707 19.003C11.8707 18.6098 12.0264 18.2413 12.3103 17.9656L12.3451 17.9317L12.3799 17.9656L13.411 18.9672C13.6855 19.2339 14.0462 19.3681 14.4072 19.3681C14.7681 19.3681 15.1273 19.2339 15.4034 18.9672L14.3869 22.0578ZM14.3869 22.0578H14.3885M14.3869 22.0578H14.3885M14.3885 22.0578C14.9545 22.5937 15.9441 22.589 16.5026 22.0437L14.3885 22.0578ZM14.3354 15.9983L14.3723 15.9624L15.4034 14.9608L15.4382 14.927L15.4731 14.9608L16.5041 15.9624C16.7787 16.2291 17.1393 16.3634 17.5003 16.3634C17.8613 16.3634 18.222 16.2291 18.4965 15.9624C19.045 15.4281 19.045 14.5653 18.4965 14.031L14.3354 15.9983ZM14.3354 15.9983L14.3723 16.0341M14.3354 15.9983L14.3723 16.0341M14.3723 16.0341L15.4033 17.0357M14.3723 16.0341L15.4033 17.0357M15.4033 17.0357L15.4034 17.0357C15.9519 17.57 15.9519 18.4342 15.4035 18.9671L15.4033 17.0357ZM29.8394 5.01527L29.8395 5.01536C30.3894 5.54819 30.3895 6.41245 29.8394 6.94675L26.6005 10.0932L26.572 10.1208L26.5925 10.1549C27.8919 12.3088 27.6143 15.1192 25.7153 16.964L18.4965 23.9751L18.4965 23.9751C17.6821 24.7677 16.5965 25.2034 15.4382 25.2034C14.2799 25.2034 13.1929 24.7676 12.38 23.9751L12.3452 23.9412L12.3103 23.9751L10.2467 25.9797L10.2098 26.0155L10.2467 26.0514C10.7953 26.5857 10.7952 27.45 10.2467 27.9828C9.97076 28.2509 9.61016 28.3838 9.25052 28.3838C8.88937 28.3838 8.52884 28.2509 8.25441 27.9829L8.25432 27.9828L6.19223 25.9797L6.19219 25.9796C5.64228 25.4468 5.64221 24.5825 6.19223 24.0482C6.74155 23.5146 7.63384 23.5145 8.18468 24.0483L8.21952 24.082L8.25432 24.0482L10.3179 22.0436L10.3548 22.0077L10.3178 21.9719C9.50203 21.1822 9.05406 20.1284 9.05406 19.003C9.05406 17.8777 9.50203 16.8238 10.3178 16.0328L10.3179 16.0327L17.5351 9.02165C19.4346 7.17644 22.3297 6.90617 24.547 8.16931L24.5797 8.1879L24.6066 8.16174L27.847 5.01532L27.847 5.01531C28.3979 4.48022 29.2901 4.48028 29.8394 5.01527ZM10.2471 22.0426L8.21948 24.0124L17.5003 8.98578L10.283 15.9969C9.4576 16.7973 9.00406 17.864 9.00406 19.003C9.00406 20.1255 9.44452 21.1778 10.2473 21.9728L10.2482 21.9719L10.283 22.0078L10.2482 22.0437C10.2479 22.0434 10.2475 22.043 10.2471 22.0426Z" fill="#0D3F67" stroke="#0D3F67" stroke-width="0.1"/>
</svg>
